<mxfile host="app.diagrams.net" modified="2022-11-08T20:59:20.660Z" agent="5.0 (Windows NT 10.0; Win64; x64) AppleWebKit/537.36 (KHTML, like Gecko) Chrome/107.0.0.0 Safari/537.36" etag="nEAj7T-YnCcZajeO0ZG_" version="20.5.3" type="github" pages="3">
  <diagram id="Emxh4iSwS1DpKRrGcylt" name="ИМБД">
    <mxGraphModel dx="1422" dy="705" grid="1" gridSize="10" guides="1" tooltips="1" connect="1" arrows="1" fold="1" page="1" pageScale="1" pageWidth="827" pageHeight="1169" math="0" shadow="0">
      <root>
        <mxCell id="BPt0qj2HamuHZTpBTeof-0" />
        <mxCell id="BPt0qj2HamuHZTpBTeof-1" parent="BPt0qj2HamuHZTpBTeof-0" />
        <mxCell id="1g8t_ctCW6GRgJLsp_G5-133" value="Список_Экскурсий" style="swimlane;fontStyle=0;childLayout=stackLayout;horizontal=1;startSize=26;fillColor=none;horizontalStack=0;resizeParent=1;resizeParentMax=0;resizeLast=0;collapsible=1;marginBottom=0;" parent="BPt0qj2HamuHZTpBTeof-1" vertex="1">
          <mxGeometry x="690" y="680" width="140" height="130" as="geometry" />
        </mxCell>
        <mxCell id="1g8t_ctCW6GRgJLsp_G5-134" value="Номер_Экскурсии" style="text;strokeColor=none;fillColor=none;align=left;verticalAlign=top;spacingLeft=4;spacingRight=4;overflow=hidden;rotatable=0;points=[[0,0.5],[1,0.5]];portConstraint=eastwest;" parent="1g8t_ctCW6GRgJLsp_G5-133" vertex="1">
          <mxGeometry y="26" width="140" height="26" as="geometry" />
        </mxCell>
        <mxCell id="1g8t_ctCW6GRgJLsp_G5-135" value="Наименование" style="text;strokeColor=none;fillColor=none;align=left;verticalAlign=top;spacingLeft=4;spacingRight=4;overflow=hidden;rotatable=0;points=[[0,0.5],[1,0.5]];portConstraint=eastwest;" parent="1g8t_ctCW6GRgJLsp_G5-133" vertex="1">
          <mxGeometry y="52" width="140" height="26" as="geometry" />
        </mxCell>
        <mxCell id="1g8t_ctCW6GRgJLsp_G5-136" value="Длительность" style="text;strokeColor=none;fillColor=none;align=left;verticalAlign=top;spacingLeft=4;spacingRight=4;overflow=hidden;rotatable=0;points=[[0,0.5],[1,0.5]];portConstraint=eastwest;" parent="1g8t_ctCW6GRgJLsp_G5-133" vertex="1">
          <mxGeometry y="78" width="140" height="26" as="geometry" />
        </mxCell>
        <mxCell id="1g8t_ctCW6GRgJLsp_G5-137" value="Описание" style="text;strokeColor=none;fillColor=none;align=left;verticalAlign=top;spacingLeft=4;spacingRight=4;overflow=hidden;rotatable=0;points=[[0,0.5],[1,0.5]];portConstraint=eastwest;" parent="1g8t_ctCW6GRgJLsp_G5-133" vertex="1">
          <mxGeometry y="104" width="140" height="26" as="geometry" />
        </mxCell>
        <mxCell id="3Q4PdsSG1dRFdK6QT3vZ-11" value="" style="edgeStyle=orthogonalEdgeStyle;rounded=0;orthogonalLoop=1;jettySize=auto;html=1;entryX=0;entryY=0.5;entryDx=0;entryDy=0;exitX=1;exitY=0.5;exitDx=0;exitDy=0;" parent="BPt0qj2HamuHZTpBTeof-1" source="3Q4PdsSG1dRFdK6QT3vZ-16" target="1g8t_ctCW6GRgJLsp_G5-139" edge="1">
          <mxGeometry relative="1" as="geometry">
            <mxPoint x="360" y="440" as="sourcePoint" />
          </mxGeometry>
        </mxCell>
        <mxCell id="1g8t_ctCW6GRgJLsp_G5-138" value="Группы" style="swimlane;fontStyle=0;childLayout=stackLayout;horizontal=1;startSize=26;fillColor=none;horizontalStack=0;resizeParent=1;resizeParentMax=0;resizeLast=0;collapsible=1;marginBottom=0;" parent="BPt0qj2HamuHZTpBTeof-1" vertex="1">
          <mxGeometry x="520" y="410" width="170" height="104" as="geometry">
            <mxRectangle x="700" y="548" width="80" height="30" as="alternateBounds" />
          </mxGeometry>
        </mxCell>
        <mxCell id="1g8t_ctCW6GRgJLsp_G5-139" value="Номер_Группы" style="text;strokeColor=none;fillColor=none;align=left;verticalAlign=top;spacingLeft=4;spacingRight=4;overflow=hidden;rotatable=0;points=[[0,0.5],[1,0.5]];portConstraint=eastwest;" parent="1g8t_ctCW6GRgJLsp_G5-138" vertex="1">
          <mxGeometry y="26" width="170" height="26" as="geometry" />
        </mxCell>
        <mxCell id="1g8t_ctCW6GRgJLsp_G5-140" value="Номер_Водителя" style="text;strokeColor=none;fillColor=none;align=left;verticalAlign=top;spacingLeft=4;spacingRight=4;overflow=hidden;rotatable=0;points=[[0,0.5],[1,0.5]];portConstraint=eastwest;" parent="1g8t_ctCW6GRgJLsp_G5-138" vertex="1">
          <mxGeometry y="52" width="170" height="26" as="geometry" />
        </mxCell>
        <mxCell id="1g8t_ctCW6GRgJLsp_G5-141" value="Номер_Автобуса" style="text;strokeColor=none;fillColor=none;align=left;verticalAlign=top;spacingLeft=4;spacingRight=4;overflow=hidden;rotatable=0;points=[[0,0.5],[1,0.5]];portConstraint=eastwest;" parent="1g8t_ctCW6GRgJLsp_G5-138" vertex="1">
          <mxGeometry y="78" width="170" height="26" as="geometry" />
        </mxCell>
        <mxCell id="1g8t_ctCW6GRgJLsp_G5-143" value="Авторизация" style="swimlane;fontStyle=0;childLayout=stackLayout;horizontal=1;startSize=26;fillColor=none;horizontalStack=0;resizeParent=1;resizeParentMax=0;resizeLast=0;collapsible=1;marginBottom=0;" parent="BPt0qj2HamuHZTpBTeof-1" vertex="1">
          <mxGeometry x="396" y="170" width="140" height="182" as="geometry" />
        </mxCell>
        <mxCell id="1g8t_ctCW6GRgJLsp_G5-145" value="Логин" style="text;strokeColor=none;fillColor=none;align=left;verticalAlign=top;spacingLeft=4;spacingRight=4;overflow=hidden;rotatable=0;points=[[0,0.5],[1,0.5]];portConstraint=eastwest;" parent="1g8t_ctCW6GRgJLsp_G5-143" vertex="1">
          <mxGeometry y="26" width="140" height="26" as="geometry" />
        </mxCell>
        <mxCell id="1g8t_ctCW6GRgJLsp_G5-146" value="Пароль" style="text;strokeColor=none;fillColor=none;align=left;verticalAlign=top;spacingLeft=4;spacingRight=4;overflow=hidden;rotatable=0;points=[[0,0.5],[1,0.5]];portConstraint=eastwest;" parent="1g8t_ctCW6GRgJLsp_G5-143" vertex="1">
          <mxGeometry y="52" width="140" height="26" as="geometry" />
        </mxCell>
        <mxCell id="1g8t_ctCW6GRgJLsp_G5-147" value="Фамилия" style="text;strokeColor=none;fillColor=none;align=left;verticalAlign=top;spacingLeft=4;spacingRight=4;overflow=hidden;rotatable=0;points=[[0,0.5],[1,0.5]];portConstraint=eastwest;" parent="1g8t_ctCW6GRgJLsp_G5-143" vertex="1">
          <mxGeometry y="78" width="140" height="26" as="geometry" />
        </mxCell>
        <mxCell id="1g8t_ctCW6GRgJLsp_G5-148" value="Имя" style="text;strokeColor=none;fillColor=none;align=left;verticalAlign=top;spacingLeft=4;spacingRight=4;overflow=hidden;rotatable=0;points=[[0,0.5],[1,0.5]];portConstraint=eastwest;" parent="1g8t_ctCW6GRgJLsp_G5-143" vertex="1">
          <mxGeometry y="104" width="140" height="26" as="geometry" />
        </mxCell>
        <mxCell id="1g8t_ctCW6GRgJLsp_G5-149" value="Отчество" style="text;strokeColor=none;fillColor=none;align=left;verticalAlign=top;spacingLeft=4;spacingRight=4;overflow=hidden;rotatable=0;points=[[0,0.5],[1,0.5]];portConstraint=eastwest;" parent="1g8t_ctCW6GRgJLsp_G5-143" vertex="1">
          <mxGeometry y="130" width="140" height="26" as="geometry" />
        </mxCell>
        <mxCell id="1g8t_ctCW6GRgJLsp_G5-150" value="Номер_Телефона" style="text;strokeColor=none;fillColor=none;align=left;verticalAlign=top;spacingLeft=4;spacingRight=4;overflow=hidden;rotatable=0;points=[[0,0.5],[1,0.5]];portConstraint=eastwest;" parent="1g8t_ctCW6GRgJLsp_G5-143" vertex="1">
          <mxGeometry y="156" width="140" height="26" as="geometry" />
        </mxCell>
        <mxCell id="1g8t_ctCW6GRgJLsp_G5-151" value="1" style="text;html=1;strokeColor=none;fillColor=none;align=center;verticalAlign=middle;whiteSpace=wrap;rounded=0;" parent="BPt0qj2HamuHZTpBTeof-1" vertex="1">
          <mxGeometry x="830" y="701" width="40" height="20" as="geometry" />
        </mxCell>
        <mxCell id="1g8t_ctCW6GRgJLsp_G5-152" value="N" style="text;html=1;strokeColor=none;fillColor=none;align=center;verticalAlign=middle;whiteSpace=wrap;rounded=0;" parent="BPt0qj2HamuHZTpBTeof-1" vertex="1">
          <mxGeometry x="990" y="701" width="40" height="20" as="geometry" />
        </mxCell>
        <mxCell id="1g8t_ctCW6GRgJLsp_G5-153" value="Мероприятия" style="swimlane;fontStyle=0;childLayout=stackLayout;horizontal=1;startSize=26;fillColor=none;horizontalStack=0;resizeParent=1;resizeParentMax=0;resizeLast=0;collapsible=1;marginBottom=0;" parent="BPt0qj2HamuHZTpBTeof-1" vertex="1">
          <mxGeometry x="1030" y="654" width="140" height="156" as="geometry" />
        </mxCell>
        <mxCell id="1g8t_ctCW6GRgJLsp_G5-154" value="Номер_Мероприятия" style="text;strokeColor=none;fillColor=none;align=left;verticalAlign=top;spacingLeft=4;spacingRight=4;overflow=hidden;rotatable=0;points=[[0,0.5],[1,0.5]];portConstraint=eastwest;" parent="1g8t_ctCW6GRgJLsp_G5-153" vertex="1">
          <mxGeometry y="26" width="140" height="26" as="geometry" />
        </mxCell>
        <mxCell id="1g8t_ctCW6GRgJLsp_G5-155" value="Номер_Экскурсии" style="text;strokeColor=none;fillColor=none;align=left;verticalAlign=top;spacingLeft=4;spacingRight=4;overflow=hidden;rotatable=0;points=[[0,0.5],[1,0.5]];portConstraint=eastwest;" parent="1g8t_ctCW6GRgJLsp_G5-153" vertex="1">
          <mxGeometry y="52" width="140" height="26" as="geometry" />
        </mxCell>
        <mxCell id="1g8t_ctCW6GRgJLsp_G5-156" value="Дата_и_время_начала" style="text;strokeColor=none;fillColor=none;align=left;verticalAlign=top;spacingLeft=4;spacingRight=4;overflow=hidden;rotatable=0;points=[[0,0.5],[1,0.5]];portConstraint=eastwest;" parent="1g8t_ctCW6GRgJLsp_G5-153" vertex="1">
          <mxGeometry y="78" width="140" height="26" as="geometry" />
        </mxCell>
        <mxCell id="1g8t_ctCW6GRgJLsp_G5-157" value="Дата_и_время_конца" style="text;strokeColor=none;fillColor=none;align=left;verticalAlign=top;spacingLeft=4;spacingRight=4;overflow=hidden;rotatable=0;points=[[0,0.5],[1,0.5]];portConstraint=eastwest;" parent="1g8t_ctCW6GRgJLsp_G5-153" vertex="1">
          <mxGeometry y="104" width="140" height="26" as="geometry" />
        </mxCell>
        <mxCell id="1g8t_ctCW6GRgJLsp_G5-158" value="Номер_Группы" style="text;strokeColor=none;fillColor=none;align=left;verticalAlign=top;spacingLeft=4;spacingRight=4;overflow=hidden;rotatable=0;points=[[0,0.5],[1,0.5]];portConstraint=eastwest;" parent="1g8t_ctCW6GRgJLsp_G5-153" vertex="1">
          <mxGeometry y="130" width="140" height="26" as="geometry" />
        </mxCell>
        <mxCell id="1g8t_ctCW6GRgJLsp_G5-159" style="edgeStyle=orthogonalEdgeStyle;rounded=0;orthogonalLoop=1;jettySize=auto;html=1;exitX=1;exitY=0.5;exitDx=0;exitDy=0;entryX=0;entryY=0.5;entryDx=0;entryDy=0;" parent="BPt0qj2HamuHZTpBTeof-1" source="1g8t_ctCW6GRgJLsp_G5-134" target="1g8t_ctCW6GRgJLsp_G5-155" edge="1">
          <mxGeometry relative="1" as="geometry" />
        </mxCell>
        <mxCell id="1g8t_ctCW6GRgJLsp_G5-160" style="edgeStyle=orthogonalEdgeStyle;rounded=0;orthogonalLoop=1;jettySize=auto;html=1;exitX=0.5;exitY=0;exitDx=0;exitDy=0;entryX=1;entryY=0.5;entryDx=0;entryDy=0;" parent="BPt0qj2HamuHZTpBTeof-1" source="1g8t_ctCW6GRgJLsp_G5-138" target="1g8t_ctCW6GRgJLsp_G5-158" edge="1">
          <mxGeometry relative="1" as="geometry" />
        </mxCell>
        <mxCell id="1g8t_ctCW6GRgJLsp_G5-161" value="1" style="text;html=1;strokeColor=none;fillColor=none;align=center;verticalAlign=middle;whiteSpace=wrap;rounded=0;" parent="BPt0qj2HamuHZTpBTeof-1" vertex="1">
          <mxGeometry x="570" y="390" width="40" height="20" as="geometry" />
        </mxCell>
        <mxCell id="1g8t_ctCW6GRgJLsp_G5-162" value="N" style="text;html=1;strokeColor=none;fillColor=none;align=center;verticalAlign=middle;whiteSpace=wrap;rounded=0;" parent="BPt0qj2HamuHZTpBTeof-1" vertex="1">
          <mxGeometry x="1350" y="338" width="40" height="20" as="geometry" />
        </mxCell>
        <mxCell id="1g8t_ctCW6GRgJLsp_G5-172" value="Водители" style="swimlane;fontStyle=0;childLayout=stackLayout;horizontal=1;startSize=26;fillColor=none;horizontalStack=0;resizeParent=1;resizeParentMax=0;resizeLast=0;collapsible=1;marginBottom=0;" parent="BPt0qj2HamuHZTpBTeof-1" vertex="1">
          <mxGeometry x="810" y="430" width="180" height="156" as="geometry" />
        </mxCell>
        <mxCell id="1g8t_ctCW6GRgJLsp_G5-173" value="Номер_Водителя" style="text;strokeColor=none;fillColor=none;align=left;verticalAlign=top;spacingLeft=4;spacingRight=4;overflow=hidden;rotatable=0;points=[[0,0.5],[1,0.5]];portConstraint=eastwest;" parent="1g8t_ctCW6GRgJLsp_G5-172" vertex="1">
          <mxGeometry y="26" width="180" height="26" as="geometry" />
        </mxCell>
        <mxCell id="1g8t_ctCW6GRgJLsp_G5-174" value="Фамилия" style="text;strokeColor=none;fillColor=none;align=left;verticalAlign=top;spacingLeft=4;spacingRight=4;overflow=hidden;rotatable=0;points=[[0,0.5],[1,0.5]];portConstraint=eastwest;" parent="1g8t_ctCW6GRgJLsp_G5-172" vertex="1">
          <mxGeometry y="52" width="180" height="26" as="geometry" />
        </mxCell>
        <mxCell id="1g8t_ctCW6GRgJLsp_G5-175" value="Имя" style="text;strokeColor=none;fillColor=none;align=left;verticalAlign=top;spacingLeft=4;spacingRight=4;overflow=hidden;rotatable=0;points=[[0,0.5],[1,0.5]];portConstraint=eastwest;" parent="1g8t_ctCW6GRgJLsp_G5-172" vertex="1">
          <mxGeometry y="78" width="180" height="26" as="geometry" />
        </mxCell>
        <mxCell id="1g8t_ctCW6GRgJLsp_G5-176" value="Отчество" style="text;strokeColor=none;fillColor=none;align=left;verticalAlign=top;spacingLeft=4;spacingRight=4;overflow=hidden;rotatable=0;points=[[0,0.5],[1,0.5]];portConstraint=eastwest;" parent="1g8t_ctCW6GRgJLsp_G5-172" vertex="1">
          <mxGeometry y="104" width="180" height="26" as="geometry" />
        </mxCell>
        <mxCell id="1g8t_ctCW6GRgJLsp_G5-177" value="Номер телефона" style="text;strokeColor=none;fillColor=none;align=left;verticalAlign=top;spacingLeft=4;spacingRight=4;overflow=hidden;rotatable=0;points=[[0,0.5],[1,0.5]];portConstraint=eastwest;" parent="1g8t_ctCW6GRgJLsp_G5-172" vertex="1">
          <mxGeometry y="130" width="180" height="26" as="geometry" />
        </mxCell>
        <mxCell id="1g8t_ctCW6GRgJLsp_G5-178" value="Автобусы" style="swimlane;fontStyle=0;childLayout=stackLayout;horizontal=1;startSize=26;fillColor=none;horizontalStack=0;resizeParent=1;resizeParentMax=0;resizeLast=0;collapsible=1;marginBottom=0;" parent="BPt0qj2HamuHZTpBTeof-1" vertex="1">
          <mxGeometry x="320" y="560" width="180" height="104" as="geometry" />
        </mxCell>
        <mxCell id="1g8t_ctCW6GRgJLsp_G5-179" value="Номер_Автобуса" style="text;strokeColor=none;fillColor=none;align=left;verticalAlign=top;spacingLeft=4;spacingRight=4;overflow=hidden;rotatable=0;points=[[0,0.5],[1,0.5]];portConstraint=eastwest;" parent="1g8t_ctCW6GRgJLsp_G5-178" vertex="1">
          <mxGeometry y="26" width="180" height="26" as="geometry" />
        </mxCell>
        <mxCell id="1g8t_ctCW6GRgJLsp_G5-180" value="Номер" style="text;strokeColor=none;fillColor=none;align=left;verticalAlign=top;spacingLeft=4;spacingRight=4;overflow=hidden;rotatable=0;points=[[0,0.5],[1,0.5]];portConstraint=eastwest;" parent="1g8t_ctCW6GRgJLsp_G5-178" vertex="1">
          <mxGeometry y="52" width="180" height="26" as="geometry" />
        </mxCell>
        <mxCell id="1g8t_ctCW6GRgJLsp_G5-181" value="Марка" style="text;strokeColor=none;fillColor=none;align=left;verticalAlign=top;spacingLeft=4;spacingRight=4;overflow=hidden;rotatable=0;points=[[0,0.5],[1,0.5]];portConstraint=eastwest;" parent="1g8t_ctCW6GRgJLsp_G5-178" vertex="1">
          <mxGeometry y="78" width="180" height="26" as="geometry" />
        </mxCell>
        <mxCell id="1g8t_ctCW6GRgJLsp_G5-182" style="edgeStyle=orthogonalEdgeStyle;rounded=0;orthogonalLoop=1;jettySize=auto;html=1;exitX=0;exitY=0.5;exitDx=0;exitDy=0;entryX=1;entryY=0.5;entryDx=0;entryDy=0;" parent="BPt0qj2HamuHZTpBTeof-1" source="1g8t_ctCW6GRgJLsp_G5-173" target="1g8t_ctCW6GRgJLsp_G5-140" edge="1">
          <mxGeometry relative="1" as="geometry" />
        </mxCell>
        <mxCell id="1g8t_ctCW6GRgJLsp_G5-183" value="1" style="text;html=1;strokeColor=none;fillColor=none;align=center;verticalAlign=middle;whiteSpace=wrap;rounded=0;" parent="BPt0qj2HamuHZTpBTeof-1" vertex="1">
          <mxGeometry x="780" y="446" width="40" height="20" as="geometry" />
        </mxCell>
        <mxCell id="1g8t_ctCW6GRgJLsp_G5-185" value="1" style="text;html=1;strokeColor=none;fillColor=none;align=center;verticalAlign=middle;whiteSpace=wrap;rounded=0;" parent="BPt0qj2HamuHZTpBTeof-1" vertex="1">
          <mxGeometry x="290" y="576" width="40" height="20" as="geometry" />
        </mxCell>
        <mxCell id="1g8t_ctCW6GRgJLsp_G5-186" value="N" style="text;html=1;strokeColor=none;fillColor=none;align=center;verticalAlign=middle;whiteSpace=wrap;rounded=0;" parent="BPt0qj2HamuHZTpBTeof-1" vertex="1">
          <mxGeometry x="679" y="450" width="40" height="20" as="geometry" />
        </mxCell>
        <mxCell id="1g8t_ctCW6GRgJLsp_G5-187" value="N" style="text;html=1;strokeColor=none;fillColor=none;align=center;verticalAlign=middle;whiteSpace=wrap;rounded=0;" parent="BPt0qj2HamuHZTpBTeof-1" vertex="1">
          <mxGeometry x="480" y="479" width="40" height="20" as="geometry" />
        </mxCell>
        <mxCell id="WJUVrEZMmfWAK8FBuqxf-2" style="edgeStyle=orthogonalEdgeStyle;rounded=0;orthogonalLoop=1;jettySize=auto;html=1;exitX=0;exitY=0.5;exitDx=0;exitDy=0;entryX=0;entryY=0.5;entryDx=0;entryDy=0;" parent="BPt0qj2HamuHZTpBTeof-1" source="1g8t_ctCW6GRgJLsp_G5-179" target="1g8t_ctCW6GRgJLsp_G5-141" edge="1">
          <mxGeometry relative="1" as="geometry">
            <Array as="points">
              <mxPoint x="270" y="599" />
              <mxPoint x="270" y="520" />
              <mxPoint x="220" y="520" />
              <mxPoint x="220" y="500" />
              <mxPoint x="520" y="500" />
            </Array>
            <mxPoint x="-160" y="565" as="targetPoint" />
          </mxGeometry>
        </mxCell>
        <mxCell id="3Q4PdsSG1dRFdK6QT3vZ-7" value="Клиенты" style="swimlane;fontStyle=0;childLayout=stackLayout;horizontal=1;startSize=26;fillColor=none;horizontalStack=0;resizeParent=1;resizeParentMax=0;resizeLast=0;collapsible=1;marginBottom=0;" parent="BPt0qj2HamuHZTpBTeof-1" vertex="1">
          <mxGeometry x="130" y="326" width="170" height="156" as="geometry">
            <mxRectangle x="700" y="548" width="80" height="30" as="alternateBounds" />
          </mxGeometry>
        </mxCell>
        <mxCell id="3Q4PdsSG1dRFdK6QT3vZ-8" value="Номер_Группы" style="text;strokeColor=none;fillColor=none;align=left;verticalAlign=top;spacingLeft=4;spacingRight=4;overflow=hidden;rotatable=0;points=[[0,0.5],[1,0.5]];portConstraint=eastwest;" parent="3Q4PdsSG1dRFdK6QT3vZ-7" vertex="1">
          <mxGeometry y="26" width="170" height="26" as="geometry" />
        </mxCell>
        <mxCell id="3Q4PdsSG1dRFdK6QT3vZ-16" value="Номер клиента" style="text;strokeColor=none;fillColor=none;align=left;verticalAlign=top;spacingLeft=4;spacingRight=4;overflow=hidden;rotatable=0;points=[[0,0.5],[1,0.5]];portConstraint=eastwest;" parent="3Q4PdsSG1dRFdK6QT3vZ-7" vertex="1">
          <mxGeometry y="52" width="170" height="26" as="geometry" />
        </mxCell>
        <mxCell id="3Q4PdsSG1dRFdK6QT3vZ-9" value="Фамилия" style="text;strokeColor=none;fillColor=none;align=left;verticalAlign=top;spacingLeft=4;spacingRight=4;overflow=hidden;rotatable=0;points=[[0,0.5],[1,0.5]];portConstraint=eastwest;" parent="3Q4PdsSG1dRFdK6QT3vZ-7" vertex="1">
          <mxGeometry y="78" width="170" height="26" as="geometry" />
        </mxCell>
        <mxCell id="3Q4PdsSG1dRFdK6QT3vZ-13" value="Имя&#xa;" style="text;strokeColor=none;fillColor=none;align=left;verticalAlign=top;spacingLeft=4;spacingRight=4;overflow=hidden;rotatable=0;points=[[0,0.5],[1,0.5]];portConstraint=eastwest;" parent="3Q4PdsSG1dRFdK6QT3vZ-7" vertex="1">
          <mxGeometry y="104" width="170" height="26" as="geometry" />
        </mxCell>
        <mxCell id="3Q4PdsSG1dRFdK6QT3vZ-10" value="Отчество" style="text;strokeColor=none;fillColor=none;align=left;verticalAlign=top;spacingLeft=4;spacingRight=4;overflow=hidden;rotatable=0;points=[[0,0.5],[1,0.5]];portConstraint=eastwest;" parent="3Q4PdsSG1dRFdK6QT3vZ-7" vertex="1">
          <mxGeometry y="130" width="170" height="26" as="geometry" />
        </mxCell>
        <mxCell id="3Q4PdsSG1dRFdK6QT3vZ-14" value="1" style="text;html=1;strokeColor=none;fillColor=none;align=center;verticalAlign=middle;whiteSpace=wrap;rounded=0;" parent="BPt0qj2HamuHZTpBTeof-1" vertex="1">
          <mxGeometry x="490" y="426" width="40" height="20" as="geometry" />
        </mxCell>
        <mxCell id="3Q4PdsSG1dRFdK6QT3vZ-15" value="N" style="text;html=1;strokeColor=none;fillColor=none;align=center;verticalAlign=middle;whiteSpace=wrap;rounded=0;" parent="BPt0qj2HamuHZTpBTeof-1" vertex="1">
          <mxGeometry x="290" y="370" width="40" height="20" as="geometry" />
        </mxCell>
      </root>
    </mxGraphModel>
  </diagram>
  <diagram id="kT7qYRvRBt5MA8PJvkrh" name="ДМБД">
    <mxGraphModel dx="3412" dy="1282" grid="1" gridSize="10" guides="1" tooltips="1" connect="1" arrows="1" fold="1" page="1" pageScale="1" pageWidth="827" pageHeight="1169" math="0" shadow="0">
      <root>
        <mxCell id="0" />
        <mxCell id="1" parent="0" />
        <mxCell id="nbHnSsZQPFHzkMGXKjEx-72" value="Auth" style="shape=table;startSize=30;container=1;collapsible=1;childLayout=tableLayout;fixedRows=1;rowLines=0;fontStyle=1;align=center;resizeLast=1;" parent="1" vertex="1">
          <mxGeometry x="350" y="40" width="330" height="280" as="geometry">
            <mxRectangle x="70" y="60" width="70" height="30" as="alternateBounds" />
          </mxGeometry>
        </mxCell>
        <mxCell id="nbHnSsZQPFHzkMGXKjEx-73" value="" style="shape=partialRectangle;collapsible=0;dropTarget=0;pointerEvents=0;fillColor=none;top=0;left=0;bottom=1;right=0;points=[[0,0.5],[1,0.5]];portConstraint=eastwest;" parent="nbHnSsZQPFHzkMGXKjEx-72" vertex="1">
          <mxGeometry y="30" width="330" height="30" as="geometry" />
        </mxCell>
        <mxCell id="nbHnSsZQPFHzkMGXKjEx-74" value="PK" style="shape=partialRectangle;connectable=0;fillColor=none;top=0;left=0;bottom=0;right=0;fontStyle=1;overflow=hidden;" parent="nbHnSsZQPFHzkMGXKjEx-73" vertex="1">
          <mxGeometry width="30" height="30" as="geometry">
            <mxRectangle width="30" height="30" as="alternateBounds" />
          </mxGeometry>
        </mxCell>
        <mxCell id="nbHnSsZQPFHzkMGXKjEx-75" value="FieldName" style="shape=partialRectangle;connectable=0;fillColor=none;top=0;left=0;bottom=0;right=0;align=center;spacingLeft=6;fontStyle=5;overflow=hidden;" parent="nbHnSsZQPFHzkMGXKjEx-73" vertex="1">
          <mxGeometry x="30" width="150" height="30" as="geometry">
            <mxRectangle width="150" height="30" as="alternateBounds" />
          </mxGeometry>
        </mxCell>
        <mxCell id="nbHnSsZQPFHzkMGXKjEx-76" value="datatype" style="shape=partialRectangle;connectable=0;fillColor=none;top=0;left=0;bottom=0;right=0;align=center;spacingLeft=6;fontStyle=5;overflow=hidden;" parent="nbHnSsZQPFHzkMGXKjEx-73" vertex="1">
          <mxGeometry x="180" width="150" height="30" as="geometry">
            <mxRectangle width="150" height="30" as="alternateBounds" />
          </mxGeometry>
        </mxCell>
        <mxCell id="nbHnSsZQPFHzkMGXKjEx-77" value="" style="shape=partialRectangle;collapsible=0;dropTarget=0;pointerEvents=0;fillColor=none;top=0;left=0;bottom=0;right=0;points=[[0,0.5],[1,0.5]];portConstraint=eastwest;" parent="nbHnSsZQPFHzkMGXKjEx-72" vertex="1">
          <mxGeometry y="60" width="330" height="30" as="geometry" />
        </mxCell>
        <mxCell id="nbHnSsZQPFHzkMGXKjEx-78" value="" style="shape=partialRectangle;connectable=0;fillColor=none;top=0;left=0;bottom=0;right=0;editable=1;overflow=hidden;" parent="nbHnSsZQPFHzkMGXKjEx-77" vertex="1">
          <mxGeometry width="30" height="30" as="geometry">
            <mxRectangle width="30" height="30" as="alternateBounds" />
          </mxGeometry>
        </mxCell>
        <mxCell id="nbHnSsZQPFHzkMGXKjEx-79" value="" style="shape=partialRectangle;connectable=0;fillColor=none;top=0;left=0;bottom=0;right=0;align=left;spacingLeft=6;overflow=hidden;" parent="nbHnSsZQPFHzkMGXKjEx-77" vertex="1">
          <mxGeometry x="30" width="150" height="30" as="geometry">
            <mxRectangle width="150" height="30" as="alternateBounds" />
          </mxGeometry>
        </mxCell>
        <mxCell id="nbHnSsZQPFHzkMGXKjEx-80" value="" style="shape=partialRectangle;connectable=0;fillColor=none;top=0;left=0;bottom=0;right=0;align=center;spacingLeft=6;overflow=hidden;" parent="nbHnSsZQPFHzkMGXKjEx-77" vertex="1">
          <mxGeometry x="180" width="150" height="30" as="geometry">
            <mxRectangle width="150" height="30" as="alternateBounds" />
          </mxGeometry>
        </mxCell>
        <mxCell id="nbHnSsZQPFHzkMGXKjEx-81" value="" style="shape=partialRectangle;collapsible=0;dropTarget=0;pointerEvents=0;fillColor=none;top=0;left=0;bottom=0;right=0;points=[[0,0.5],[1,0.5]];portConstraint=eastwest;" parent="nbHnSsZQPFHzkMGXKjEx-72" vertex="1">
          <mxGeometry y="90" width="330" height="30" as="geometry" />
        </mxCell>
        <mxCell id="nbHnSsZQPFHzkMGXKjEx-82" value="" style="shape=partialRectangle;connectable=0;fillColor=none;top=0;left=0;bottom=0;right=0;editable=1;overflow=hidden;" parent="nbHnSsZQPFHzkMGXKjEx-81" vertex="1">
          <mxGeometry width="30" height="30" as="geometry">
            <mxRectangle width="30" height="30" as="alternateBounds" />
          </mxGeometry>
        </mxCell>
        <mxCell id="nbHnSsZQPFHzkMGXKjEx-83" value="Login" style="shape=partialRectangle;connectable=0;fillColor=none;top=0;left=0;bottom=0;right=0;align=left;spacingLeft=6;overflow=hidden;" parent="nbHnSsZQPFHzkMGXKjEx-81" vertex="1">
          <mxGeometry x="30" width="150" height="30" as="geometry">
            <mxRectangle width="150" height="30" as="alternateBounds" />
          </mxGeometry>
        </mxCell>
        <mxCell id="nbHnSsZQPFHzkMGXKjEx-84" value="nvarchar(40)" style="shape=partialRectangle;connectable=0;fillColor=none;top=0;left=0;bottom=0;right=0;align=center;spacingLeft=6;overflow=hidden;" parent="nbHnSsZQPFHzkMGXKjEx-81" vertex="1">
          <mxGeometry x="180" width="150" height="30" as="geometry">
            <mxRectangle width="150" height="30" as="alternateBounds" />
          </mxGeometry>
        </mxCell>
        <mxCell id="nbHnSsZQPFHzkMGXKjEx-85" value="" style="shape=partialRectangle;collapsible=0;dropTarget=0;pointerEvents=0;fillColor=none;top=0;left=0;bottom=0;right=0;points=[[0,0.5],[1,0.5]];portConstraint=eastwest;" parent="nbHnSsZQPFHzkMGXKjEx-72" vertex="1">
          <mxGeometry y="120" width="330" height="30" as="geometry" />
        </mxCell>
        <mxCell id="nbHnSsZQPFHzkMGXKjEx-86" value="" style="shape=partialRectangle;connectable=0;fillColor=none;top=0;left=0;bottom=0;right=0;editable=1;overflow=hidden;" parent="nbHnSsZQPFHzkMGXKjEx-85" vertex="1">
          <mxGeometry width="30" height="30" as="geometry">
            <mxRectangle width="30" height="30" as="alternateBounds" />
          </mxGeometry>
        </mxCell>
        <mxCell id="nbHnSsZQPFHzkMGXKjEx-87" value="Password" style="shape=partialRectangle;connectable=0;fillColor=none;top=0;left=0;bottom=0;right=0;align=left;spacingLeft=6;overflow=hidden;" parent="nbHnSsZQPFHzkMGXKjEx-85" vertex="1">
          <mxGeometry x="30" width="150" height="30" as="geometry">
            <mxRectangle width="150" height="30" as="alternateBounds" />
          </mxGeometry>
        </mxCell>
        <mxCell id="nbHnSsZQPFHzkMGXKjEx-88" value="nvarchar(40)" style="shape=partialRectangle;connectable=0;fillColor=none;top=0;left=0;bottom=0;right=0;align=center;spacingLeft=6;overflow=hidden;" parent="nbHnSsZQPFHzkMGXKjEx-85" vertex="1">
          <mxGeometry x="180" width="150" height="30" as="geometry">
            <mxRectangle width="150" height="30" as="alternateBounds" />
          </mxGeometry>
        </mxCell>
        <mxCell id="nbHnSsZQPFHzkMGXKjEx-89" value="" style="shape=partialRectangle;collapsible=0;dropTarget=0;pointerEvents=0;fillColor=none;top=0;left=0;bottom=0;right=0;points=[[0,0.5],[1,0.5]];portConstraint=eastwest;" parent="nbHnSsZQPFHzkMGXKjEx-72" vertex="1">
          <mxGeometry y="150" width="330" height="30" as="geometry" />
        </mxCell>
        <mxCell id="nbHnSsZQPFHzkMGXKjEx-90" value="" style="shape=partialRectangle;connectable=0;fillColor=none;top=0;left=0;bottom=0;right=0;editable=1;overflow=hidden;" parent="nbHnSsZQPFHzkMGXKjEx-89" vertex="1">
          <mxGeometry width="30" height="30" as="geometry">
            <mxRectangle width="30" height="30" as="alternateBounds" />
          </mxGeometry>
        </mxCell>
        <mxCell id="nbHnSsZQPFHzkMGXKjEx-91" value="LName" style="shape=partialRectangle;connectable=0;fillColor=none;top=0;left=0;bottom=0;right=0;align=left;spacingLeft=6;overflow=hidden;" parent="nbHnSsZQPFHzkMGXKjEx-89" vertex="1">
          <mxGeometry x="30" width="150" height="30" as="geometry">
            <mxRectangle width="150" height="30" as="alternateBounds" />
          </mxGeometry>
        </mxCell>
        <mxCell id="nbHnSsZQPFHzkMGXKjEx-92" value="varchar(80)" style="shape=partialRectangle;connectable=0;fillColor=none;top=0;left=0;bottom=0;right=0;align=center;spacingLeft=6;overflow=hidden;" parent="nbHnSsZQPFHzkMGXKjEx-89" vertex="1">
          <mxGeometry x="180" width="150" height="30" as="geometry">
            <mxRectangle width="150" height="30" as="alternateBounds" />
          </mxGeometry>
        </mxCell>
        <mxCell id="nbHnSsZQPFHzkMGXKjEx-93" value="" style="shape=partialRectangle;collapsible=0;dropTarget=0;pointerEvents=0;fillColor=none;top=0;left=0;bottom=0;right=0;points=[[0,0.5],[1,0.5]];portConstraint=eastwest;" parent="nbHnSsZQPFHzkMGXKjEx-72" vertex="1">
          <mxGeometry y="180" width="330" height="30" as="geometry" />
        </mxCell>
        <mxCell id="nbHnSsZQPFHzkMGXKjEx-94" value="" style="shape=partialRectangle;connectable=0;fillColor=none;top=0;left=0;bottom=0;right=0;editable=1;overflow=hidden;" parent="nbHnSsZQPFHzkMGXKjEx-93" vertex="1">
          <mxGeometry width="30" height="30" as="geometry">
            <mxRectangle width="30" height="30" as="alternateBounds" />
          </mxGeometry>
        </mxCell>
        <mxCell id="nbHnSsZQPFHzkMGXKjEx-95" value="FName" style="shape=partialRectangle;connectable=0;fillColor=none;top=0;left=0;bottom=0;right=0;align=left;spacingLeft=6;overflow=hidden;" parent="nbHnSsZQPFHzkMGXKjEx-93" vertex="1">
          <mxGeometry x="30" width="150" height="30" as="geometry">
            <mxRectangle width="150" height="30" as="alternateBounds" />
          </mxGeometry>
        </mxCell>
        <mxCell id="nbHnSsZQPFHzkMGXKjEx-96" value=" varchar(70)" style="shape=partialRectangle;connectable=0;fillColor=none;top=0;left=0;bottom=0;right=0;align=center;spacingLeft=6;overflow=hidden;" parent="nbHnSsZQPFHzkMGXKjEx-93" vertex="1">
          <mxGeometry x="180" width="150" height="30" as="geometry">
            <mxRectangle width="150" height="30" as="alternateBounds" />
          </mxGeometry>
        </mxCell>
        <mxCell id="nbHnSsZQPFHzkMGXKjEx-97" value="" style="shape=partialRectangle;collapsible=0;dropTarget=0;pointerEvents=0;fillColor=none;top=0;left=0;bottom=0;right=0;points=[[0,0.5],[1,0.5]];portConstraint=eastwest;" parent="nbHnSsZQPFHzkMGXKjEx-72" vertex="1">
          <mxGeometry y="210" width="330" height="30" as="geometry" />
        </mxCell>
        <mxCell id="nbHnSsZQPFHzkMGXKjEx-98" value="" style="shape=partialRectangle;connectable=0;fillColor=none;top=0;left=0;bottom=0;right=0;editable=1;overflow=hidden;" parent="nbHnSsZQPFHzkMGXKjEx-97" vertex="1">
          <mxGeometry width="30" height="30" as="geometry">
            <mxRectangle width="30" height="30" as="alternateBounds" />
          </mxGeometry>
        </mxCell>
        <mxCell id="nbHnSsZQPFHzkMGXKjEx-99" value="LName" style="shape=partialRectangle;connectable=0;fillColor=none;top=0;left=0;bottom=0;right=0;align=left;spacingLeft=6;overflow=hidden;" parent="nbHnSsZQPFHzkMGXKjEx-97" vertex="1">
          <mxGeometry x="30" width="150" height="30" as="geometry">
            <mxRectangle width="150" height="30" as="alternateBounds" />
          </mxGeometry>
        </mxCell>
        <mxCell id="nbHnSsZQPFHzkMGXKjEx-100" value="varchar(100)" style="shape=partialRectangle;connectable=0;fillColor=none;top=0;left=0;bottom=0;right=0;align=center;spacingLeft=6;overflow=hidden;" parent="nbHnSsZQPFHzkMGXKjEx-97" vertex="1">
          <mxGeometry x="180" width="150" height="30" as="geometry">
            <mxRectangle width="150" height="30" as="alternateBounds" />
          </mxGeometry>
        </mxCell>
        <mxCell id="nbHnSsZQPFHzkMGXKjEx-101" value="" style="shape=partialRectangle;collapsible=0;dropTarget=0;pointerEvents=0;fillColor=none;top=0;left=0;bottom=0;right=0;points=[[0,0.5],[1,0.5]];portConstraint=eastwest;" parent="nbHnSsZQPFHzkMGXKjEx-72" vertex="1">
          <mxGeometry y="240" width="330" height="30" as="geometry" />
        </mxCell>
        <mxCell id="nbHnSsZQPFHzkMGXKjEx-102" value="" style="shape=partialRectangle;connectable=0;fillColor=none;top=0;left=0;bottom=0;right=0;editable=1;overflow=hidden;" parent="nbHnSsZQPFHzkMGXKjEx-101" vertex="1">
          <mxGeometry width="30" height="30" as="geometry">
            <mxRectangle width="30" height="30" as="alternateBounds" />
          </mxGeometry>
        </mxCell>
        <mxCell id="nbHnSsZQPFHzkMGXKjEx-103" value="Phone_number" style="shape=partialRectangle;connectable=0;fillColor=none;top=0;left=0;bottom=0;right=0;align=left;spacingLeft=6;overflow=hidden;" parent="nbHnSsZQPFHzkMGXKjEx-101" vertex="1">
          <mxGeometry x="30" width="150" height="30" as="geometry">
            <mxRectangle width="150" height="30" as="alternateBounds" />
          </mxGeometry>
        </mxCell>
        <mxCell id="nbHnSsZQPFHzkMGXKjEx-104" value="varchar(11)" style="shape=partialRectangle;connectable=0;fillColor=none;top=0;left=0;bottom=0;right=0;align=center;spacingLeft=6;overflow=hidden;" parent="nbHnSsZQPFHzkMGXKjEx-101" vertex="1">
          <mxGeometry x="180" width="150" height="30" as="geometry">
            <mxRectangle width="150" height="30" as="alternateBounds" />
          </mxGeometry>
        </mxCell>
        <mxCell id="xtTWW3wnDBbp2fTEAPTd-1" value="Buses" style="shape=table;startSize=30;container=1;collapsible=1;childLayout=tableLayout;fixedRows=1;rowLines=0;fontStyle=1;align=center;resizeLast=1;" parent="1" vertex="1">
          <mxGeometry x="-20" y="660" width="330" height="160" as="geometry" />
        </mxCell>
        <mxCell id="xtTWW3wnDBbp2fTEAPTd-2" value="" style="shape=partialRectangle;collapsible=0;dropTarget=0;pointerEvents=0;fillColor=none;top=0;left=0;bottom=1;right=0;points=[[0,0.5],[1,0.5]];portConstraint=eastwest;" parent="xtTWW3wnDBbp2fTEAPTd-1" vertex="1">
          <mxGeometry y="30" width="330" height="30" as="geometry" />
        </mxCell>
        <mxCell id="xtTWW3wnDBbp2fTEAPTd-3" value="PK" style="shape=partialRectangle;connectable=0;fillColor=none;top=0;left=0;bottom=0;right=0;fontStyle=1;overflow=hidden;" parent="xtTWW3wnDBbp2fTEAPTd-2" vertex="1">
          <mxGeometry width="30" height="30" as="geometry">
            <mxRectangle width="30" height="30" as="alternateBounds" />
          </mxGeometry>
        </mxCell>
        <mxCell id="xtTWW3wnDBbp2fTEAPTd-4" value="FieldName" style="shape=partialRectangle;connectable=0;fillColor=none;top=0;left=0;bottom=0;right=0;align=center;spacingLeft=6;fontStyle=5;overflow=hidden;" parent="xtTWW3wnDBbp2fTEAPTd-2" vertex="1">
          <mxGeometry x="30" width="150" height="30" as="geometry">
            <mxRectangle width="150" height="30" as="alternateBounds" />
          </mxGeometry>
        </mxCell>
        <mxCell id="xtTWW3wnDBbp2fTEAPTd-5" value="datatype" style="shape=partialRectangle;connectable=0;fillColor=none;top=0;left=0;bottom=0;right=0;align=center;spacingLeft=6;fontStyle=5;overflow=hidden;" parent="xtTWW3wnDBbp2fTEAPTd-2" vertex="1">
          <mxGeometry x="180" width="150" height="30" as="geometry">
            <mxRectangle width="150" height="30" as="alternateBounds" />
          </mxGeometry>
        </mxCell>
        <mxCell id="xtTWW3wnDBbp2fTEAPTd-6" value="" style="shape=partialRectangle;collapsible=0;dropTarget=0;pointerEvents=0;fillColor=none;top=0;left=0;bottom=0;right=0;points=[[0,0.5],[1,0.5]];portConstraint=eastwest;" parent="xtTWW3wnDBbp2fTEAPTd-1" vertex="1">
          <mxGeometry y="60" width="330" height="30" as="geometry" />
        </mxCell>
        <mxCell id="xtTWW3wnDBbp2fTEAPTd-7" value="PK" style="shape=partialRectangle;connectable=0;fillColor=none;top=0;left=0;bottom=0;right=0;editable=1;overflow=hidden;" parent="xtTWW3wnDBbp2fTEAPTd-6" vertex="1">
          <mxGeometry width="30" height="30" as="geometry">
            <mxRectangle width="30" height="30" as="alternateBounds" />
          </mxGeometry>
        </mxCell>
        <mxCell id="xtTWW3wnDBbp2fTEAPTd-8" value="Bus_id" style="shape=partialRectangle;connectable=0;fillColor=none;top=0;left=0;bottom=0;right=0;align=left;spacingLeft=6;overflow=hidden;" parent="xtTWW3wnDBbp2fTEAPTd-6" vertex="1">
          <mxGeometry x="30" width="150" height="30" as="geometry">
            <mxRectangle width="150" height="30" as="alternateBounds" />
          </mxGeometry>
        </mxCell>
        <mxCell id="xtTWW3wnDBbp2fTEAPTd-9" value=" int " style="shape=partialRectangle;connectable=0;fillColor=none;top=0;left=0;bottom=0;right=0;align=center;spacingLeft=6;overflow=hidden;" parent="xtTWW3wnDBbp2fTEAPTd-6" vertex="1">
          <mxGeometry x="180" width="150" height="30" as="geometry">
            <mxRectangle width="150" height="30" as="alternateBounds" />
          </mxGeometry>
        </mxCell>
        <mxCell id="xtTWW3wnDBbp2fTEAPTd-10" value="" style="shape=partialRectangle;collapsible=0;dropTarget=0;pointerEvents=0;fillColor=none;top=0;left=0;bottom=0;right=0;points=[[0,0.5],[1,0.5]];portConstraint=eastwest;" parent="xtTWW3wnDBbp2fTEAPTd-1" vertex="1">
          <mxGeometry y="90" width="330" height="30" as="geometry" />
        </mxCell>
        <mxCell id="xtTWW3wnDBbp2fTEAPTd-11" value="" style="shape=partialRectangle;connectable=0;fillColor=none;top=0;left=0;bottom=0;right=0;editable=1;overflow=hidden;" parent="xtTWW3wnDBbp2fTEAPTd-10" vertex="1">
          <mxGeometry width="30" height="30" as="geometry">
            <mxRectangle width="30" height="30" as="alternateBounds" />
          </mxGeometry>
        </mxCell>
        <mxCell id="xtTWW3wnDBbp2fTEAPTd-12" value="Bus_Number" style="shape=partialRectangle;connectable=0;fillColor=none;top=0;left=0;bottom=0;right=0;align=left;spacingLeft=6;overflow=hidden;" parent="xtTWW3wnDBbp2fTEAPTd-10" vertex="1">
          <mxGeometry x="30" width="150" height="30" as="geometry">
            <mxRectangle width="150" height="30" as="alternateBounds" />
          </mxGeometry>
        </mxCell>
        <mxCell id="xtTWW3wnDBbp2fTEAPTd-13" value="nvarchar(6)" style="shape=partialRectangle;connectable=0;fillColor=none;top=0;left=0;bottom=0;right=0;align=center;spacingLeft=6;overflow=hidden;" parent="xtTWW3wnDBbp2fTEAPTd-10" vertex="1">
          <mxGeometry x="180" width="150" height="30" as="geometry">
            <mxRectangle width="150" height="30" as="alternateBounds" />
          </mxGeometry>
        </mxCell>
        <mxCell id="xtTWW3wnDBbp2fTEAPTd-14" value="" style="shape=partialRectangle;collapsible=0;dropTarget=0;pointerEvents=0;fillColor=none;top=0;left=0;bottom=0;right=0;points=[[0,0.5],[1,0.5]];portConstraint=eastwest;" parent="xtTWW3wnDBbp2fTEAPTd-1" vertex="1">
          <mxGeometry y="120" width="330" height="30" as="geometry" />
        </mxCell>
        <mxCell id="xtTWW3wnDBbp2fTEAPTd-15" value="" style="shape=partialRectangle;connectable=0;fillColor=none;top=0;left=0;bottom=0;right=0;editable=1;overflow=hidden;" parent="xtTWW3wnDBbp2fTEAPTd-14" vertex="1">
          <mxGeometry width="30" height="30" as="geometry">
            <mxRectangle width="30" height="30" as="alternateBounds" />
          </mxGeometry>
        </mxCell>
        <mxCell id="xtTWW3wnDBbp2fTEAPTd-16" value="Bus_Brend" style="shape=partialRectangle;connectable=0;fillColor=none;top=0;left=0;bottom=0;right=0;align=left;spacingLeft=6;overflow=hidden;" parent="xtTWW3wnDBbp2fTEAPTd-14" vertex="1">
          <mxGeometry x="30" width="150" height="30" as="geometry">
            <mxRectangle width="150" height="30" as="alternateBounds" />
          </mxGeometry>
        </mxCell>
        <mxCell id="xtTWW3wnDBbp2fTEAPTd-17" value="nvarchar(50)" style="shape=partialRectangle;connectable=0;fillColor=none;top=0;left=0;bottom=0;right=0;align=center;spacingLeft=6;overflow=hidden;" parent="xtTWW3wnDBbp2fTEAPTd-14" vertex="1">
          <mxGeometry x="180" width="150" height="30" as="geometry">
            <mxRectangle width="150" height="30" as="alternateBounds" />
          </mxGeometry>
        </mxCell>
        <mxCell id="xtTWW3wnDBbp2fTEAPTd-18" value="Groups" style="shape=table;startSize=30;container=1;collapsible=1;childLayout=tableLayout;fixedRows=1;rowLines=0;fontStyle=1;align=center;resizeLast=1;" parent="1" vertex="1">
          <mxGeometry x="430" y="410" width="330" height="180" as="geometry" />
        </mxCell>
        <mxCell id="xtTWW3wnDBbp2fTEAPTd-19" value="" style="shape=partialRectangle;collapsible=0;dropTarget=0;pointerEvents=0;fillColor=none;top=0;left=0;bottom=1;right=0;points=[[0,0.5],[1,0.5]];portConstraint=eastwest;" parent="xtTWW3wnDBbp2fTEAPTd-18" vertex="1">
          <mxGeometry y="30" width="330" height="30" as="geometry" />
        </mxCell>
        <mxCell id="xtTWW3wnDBbp2fTEAPTd-20" value="PK" style="shape=partialRectangle;connectable=0;fillColor=none;top=0;left=0;bottom=0;right=0;fontStyle=1;overflow=hidden;" parent="xtTWW3wnDBbp2fTEAPTd-19" vertex="1">
          <mxGeometry width="30" height="30" as="geometry">
            <mxRectangle width="30" height="30" as="alternateBounds" />
          </mxGeometry>
        </mxCell>
        <mxCell id="xtTWW3wnDBbp2fTEAPTd-21" value="FieldName" style="shape=partialRectangle;connectable=0;fillColor=none;top=0;left=0;bottom=0;right=0;align=center;spacingLeft=6;fontStyle=5;overflow=hidden;" parent="xtTWW3wnDBbp2fTEAPTd-19" vertex="1">
          <mxGeometry x="30" width="150" height="30" as="geometry">
            <mxRectangle width="150" height="30" as="alternateBounds" />
          </mxGeometry>
        </mxCell>
        <mxCell id="xtTWW3wnDBbp2fTEAPTd-22" value="datatype" style="shape=partialRectangle;connectable=0;fillColor=none;top=0;left=0;bottom=0;right=0;align=center;spacingLeft=6;fontStyle=5;overflow=hidden;" parent="xtTWW3wnDBbp2fTEAPTd-19" vertex="1">
          <mxGeometry x="180" width="150" height="30" as="geometry">
            <mxRectangle width="150" height="30" as="alternateBounds" />
          </mxGeometry>
        </mxCell>
        <mxCell id="xtTWW3wnDBbp2fTEAPTd-23" value="" style="shape=partialRectangle;collapsible=0;dropTarget=0;pointerEvents=0;fillColor=none;top=0;left=0;bottom=0;right=0;points=[[0,0.5],[1,0.5]];portConstraint=eastwest;" parent="xtTWW3wnDBbp2fTEAPTd-18" vertex="1">
          <mxGeometry y="60" width="330" height="30" as="geometry" />
        </mxCell>
        <mxCell id="xtTWW3wnDBbp2fTEAPTd-24" value="PK" style="shape=partialRectangle;connectable=0;fillColor=none;top=0;left=0;bottom=0;right=0;editable=1;overflow=hidden;" parent="xtTWW3wnDBbp2fTEAPTd-23" vertex="1">
          <mxGeometry width="30" height="30" as="geometry">
            <mxRectangle width="30" height="30" as="alternateBounds" />
          </mxGeometry>
        </mxCell>
        <mxCell id="xtTWW3wnDBbp2fTEAPTd-25" value="Group_id" style="shape=partialRectangle;connectable=0;fillColor=none;top=0;left=0;bottom=0;right=0;align=left;spacingLeft=6;overflow=hidden;" parent="xtTWW3wnDBbp2fTEAPTd-23" vertex="1">
          <mxGeometry x="30" width="150" height="30" as="geometry">
            <mxRectangle width="150" height="30" as="alternateBounds" />
          </mxGeometry>
        </mxCell>
        <mxCell id="xtTWW3wnDBbp2fTEAPTd-26" value=" int " style="shape=partialRectangle;connectable=0;fillColor=none;top=0;left=0;bottom=0;right=0;align=center;spacingLeft=6;overflow=hidden;" parent="xtTWW3wnDBbp2fTEAPTd-23" vertex="1">
          <mxGeometry x="180" width="150" height="30" as="geometry">
            <mxRectangle width="150" height="30" as="alternateBounds" />
          </mxGeometry>
        </mxCell>
        <mxCell id="xtTWW3wnDBbp2fTEAPTd-27" value="" style="shape=partialRectangle;collapsible=0;dropTarget=0;pointerEvents=0;fillColor=none;top=0;left=0;bottom=0;right=0;points=[[0,0.5],[1,0.5]];portConstraint=eastwest;" parent="xtTWW3wnDBbp2fTEAPTd-18" vertex="1">
          <mxGeometry y="90" width="330" height="30" as="geometry" />
        </mxCell>
        <mxCell id="xtTWW3wnDBbp2fTEAPTd-28" value="FK" style="shape=partialRectangle;connectable=0;fillColor=none;top=0;left=0;bottom=0;right=0;editable=1;overflow=hidden;" parent="xtTWW3wnDBbp2fTEAPTd-27" vertex="1">
          <mxGeometry width="30" height="30" as="geometry">
            <mxRectangle width="30" height="30" as="alternateBounds" />
          </mxGeometry>
        </mxCell>
        <mxCell id="xtTWW3wnDBbp2fTEAPTd-29" value="Driver_id" style="shape=partialRectangle;connectable=0;fillColor=none;top=0;left=0;bottom=0;right=0;align=left;spacingLeft=6;overflow=hidden;" parent="xtTWW3wnDBbp2fTEAPTd-27" vertex="1">
          <mxGeometry x="30" width="150" height="30" as="geometry">
            <mxRectangle width="150" height="30" as="alternateBounds" />
          </mxGeometry>
        </mxCell>
        <mxCell id="xtTWW3wnDBbp2fTEAPTd-30" value=" int " style="shape=partialRectangle;connectable=0;fillColor=none;top=0;left=0;bottom=0;right=0;align=center;spacingLeft=6;overflow=hidden;" parent="xtTWW3wnDBbp2fTEAPTd-27" vertex="1">
          <mxGeometry x="180" width="150" height="30" as="geometry">
            <mxRectangle width="150" height="30" as="alternateBounds" />
          </mxGeometry>
        </mxCell>
        <mxCell id="xtTWW3wnDBbp2fTEAPTd-31" value="" style="shape=partialRectangle;collapsible=0;dropTarget=0;pointerEvents=0;fillColor=none;top=0;left=0;bottom=0;right=0;points=[[0,0.5],[1,0.5]];portConstraint=eastwest;" parent="xtTWW3wnDBbp2fTEAPTd-18" vertex="1">
          <mxGeometry y="120" width="330" height="30" as="geometry" />
        </mxCell>
        <mxCell id="xtTWW3wnDBbp2fTEAPTd-32" value="FK" style="shape=partialRectangle;connectable=0;fillColor=none;top=0;left=0;bottom=0;right=0;editable=1;overflow=hidden;" parent="xtTWW3wnDBbp2fTEAPTd-31" vertex="1">
          <mxGeometry width="30" height="30" as="geometry">
            <mxRectangle width="30" height="30" as="alternateBounds" />
          </mxGeometry>
        </mxCell>
        <mxCell id="xtTWW3wnDBbp2fTEAPTd-33" value="Bus_id" style="shape=partialRectangle;connectable=0;fillColor=none;top=0;left=0;bottom=0;right=0;align=left;spacingLeft=6;overflow=hidden;" parent="xtTWW3wnDBbp2fTEAPTd-31" vertex="1">
          <mxGeometry x="30" width="150" height="30" as="geometry">
            <mxRectangle width="150" height="30" as="alternateBounds" />
          </mxGeometry>
        </mxCell>
        <mxCell id="xtTWW3wnDBbp2fTEAPTd-34" value="int" style="shape=partialRectangle;connectable=0;fillColor=none;top=0;left=0;bottom=0;right=0;align=center;spacingLeft=6;overflow=hidden;" parent="xtTWW3wnDBbp2fTEAPTd-31" vertex="1">
          <mxGeometry x="180" width="150" height="30" as="geometry">
            <mxRectangle width="150" height="30" as="alternateBounds" />
          </mxGeometry>
        </mxCell>
        <mxCell id="xtTWW3wnDBbp2fTEAPTd-35" value="" style="shape=partialRectangle;collapsible=0;dropTarget=0;pointerEvents=0;fillColor=none;top=0;left=0;bottom=0;right=0;points=[[0,0.5],[1,0.5]];portConstraint=eastwest;" parent="xtTWW3wnDBbp2fTEAPTd-18" vertex="1">
          <mxGeometry y="150" width="330" height="30" as="geometry" />
        </mxCell>
        <mxCell id="xtTWW3wnDBbp2fTEAPTd-36" value="" style="shape=partialRectangle;connectable=0;fillColor=none;top=0;left=0;bottom=0;right=0;editable=1;overflow=hidden;" parent="xtTWW3wnDBbp2fTEAPTd-35" vertex="1">
          <mxGeometry width="30" height="30" as="geometry">
            <mxRectangle width="30" height="30" as="alternateBounds" />
          </mxGeometry>
        </mxCell>
        <mxCell id="xtTWW3wnDBbp2fTEAPTd-37" value="" style="shape=partialRectangle;connectable=0;fillColor=none;top=0;left=0;bottom=0;right=0;align=left;spacingLeft=6;overflow=hidden;" parent="xtTWW3wnDBbp2fTEAPTd-35" vertex="1">
          <mxGeometry x="30" width="150" height="30" as="geometry">
            <mxRectangle width="150" height="30" as="alternateBounds" />
          </mxGeometry>
        </mxCell>
        <mxCell id="xtTWW3wnDBbp2fTEAPTd-38" value="" style="shape=partialRectangle;connectable=0;fillColor=none;top=0;left=0;bottom=0;right=0;align=center;spacingLeft=6;overflow=hidden;" parent="xtTWW3wnDBbp2fTEAPTd-35" vertex="1">
          <mxGeometry x="180" width="150" height="30" as="geometry">
            <mxRectangle width="150" height="30" as="alternateBounds" />
          </mxGeometry>
        </mxCell>
        <mxCell id="xtTWW3wnDBbp2fTEAPTd-39" value="" style="edgeStyle=orthogonalEdgeStyle;rounded=0;orthogonalLoop=1;jettySize=auto;html=1;entryX=0;entryY=0.5;entryDx=0;entryDy=0;" parent="1" source="xtTWW3wnDBbp2fTEAPTd-10" target="xtTWW3wnDBbp2fTEAPTd-31" edge="1">
          <mxGeometry relative="1" as="geometry" />
        </mxCell>
        <mxCell id="udVngvIpolklEe8xd-Hj-39" value="" style="edgeStyle=orthogonalEdgeStyle;rounded=0;orthogonalLoop=1;jettySize=auto;html=1;entryX=1;entryY=0.5;entryDx=0;entryDy=0;" parent="1" source="udVngvIpolklEe8xd-Hj-1" target="xtTWW3wnDBbp2fTEAPTd-27" edge="1">
          <mxGeometry relative="1" as="geometry">
            <mxPoint x="785" y="504.9999999999998" as="targetPoint" />
            <Array as="points">
              <mxPoint x="785" y="560" />
              <mxPoint x="785" y="515" />
            </Array>
          </mxGeometry>
        </mxCell>
        <mxCell id="udVngvIpolklEe8xd-Hj-1" value="Drivers" style="shape=table;startSize=30;container=1;collapsible=1;childLayout=tableLayout;fixedRows=1;rowLines=0;fontStyle=1;align=center;resizeLast=1;" parent="1" vertex="1">
          <mxGeometry x="940" y="400" width="270" height="210" as="geometry" />
        </mxCell>
        <mxCell id="udVngvIpolklEe8xd-Hj-2" value="" style="shape=partialRectangle;collapsible=0;dropTarget=0;pointerEvents=0;fillColor=none;top=0;left=0;bottom=1;right=0;points=[[0,0.5],[1,0.5]];portConstraint=eastwest;" parent="udVngvIpolklEe8xd-Hj-1" vertex="1">
          <mxGeometry y="30" width="270" height="30" as="geometry" />
        </mxCell>
        <mxCell id="udVngvIpolklEe8xd-Hj-3" value="PK" style="shape=partialRectangle;connectable=0;fillColor=none;top=0;left=0;bottom=0;right=0;fontStyle=1;overflow=hidden;" parent="udVngvIpolklEe8xd-Hj-2" vertex="1">
          <mxGeometry width="30" height="30" as="geometry">
            <mxRectangle width="30" height="30" as="alternateBounds" />
          </mxGeometry>
        </mxCell>
        <mxCell id="udVngvIpolklEe8xd-Hj-4" value="FieldName" style="shape=partialRectangle;connectable=0;fillColor=none;top=0;left=0;bottom=0;right=0;align=center;spacingLeft=6;fontStyle=5;overflow=hidden;" parent="udVngvIpolklEe8xd-Hj-2" vertex="1">
          <mxGeometry x="30" width="150" height="30" as="geometry">
            <mxRectangle width="150" height="30" as="alternateBounds" />
          </mxGeometry>
        </mxCell>
        <mxCell id="udVngvIpolklEe8xd-Hj-5" value="datatype" style="shape=partialRectangle;connectable=0;fillColor=none;top=0;left=0;bottom=0;right=0;align=center;spacingLeft=6;fontStyle=5;overflow=hidden;" parent="udVngvIpolklEe8xd-Hj-2" vertex="1">
          <mxGeometry x="180" width="90" height="30" as="geometry">
            <mxRectangle width="90" height="30" as="alternateBounds" />
          </mxGeometry>
        </mxCell>
        <mxCell id="udVngvIpolklEe8xd-Hj-6" value="" style="shape=partialRectangle;collapsible=0;dropTarget=0;pointerEvents=0;fillColor=none;top=0;left=0;bottom=0;right=0;points=[[0,0.5],[1,0.5]];portConstraint=eastwest;" parent="udVngvIpolklEe8xd-Hj-1" vertex="1">
          <mxGeometry y="60" width="270" height="30" as="geometry" />
        </mxCell>
        <mxCell id="udVngvIpolklEe8xd-Hj-7" value="PK" style="shape=partialRectangle;connectable=0;fillColor=none;top=0;left=0;bottom=0;right=0;editable=1;overflow=hidden;" parent="udVngvIpolklEe8xd-Hj-6" vertex="1">
          <mxGeometry width="30" height="30" as="geometry">
            <mxRectangle width="30" height="30" as="alternateBounds" />
          </mxGeometry>
        </mxCell>
        <mxCell id="udVngvIpolklEe8xd-Hj-8" value="Driver_id" style="shape=partialRectangle;connectable=0;fillColor=none;top=0;left=0;bottom=0;right=0;align=left;spacingLeft=6;overflow=hidden;" parent="udVngvIpolklEe8xd-Hj-6" vertex="1">
          <mxGeometry x="30" width="150" height="30" as="geometry">
            <mxRectangle width="150" height="30" as="alternateBounds" />
          </mxGeometry>
        </mxCell>
        <mxCell id="udVngvIpolklEe8xd-Hj-9" value=" int " style="shape=partialRectangle;connectable=0;fillColor=none;top=0;left=0;bottom=0;right=0;align=center;spacingLeft=6;overflow=hidden;" parent="udVngvIpolklEe8xd-Hj-6" vertex="1">
          <mxGeometry x="180" width="90" height="30" as="geometry">
            <mxRectangle width="90" height="30" as="alternateBounds" />
          </mxGeometry>
        </mxCell>
        <mxCell id="udVngvIpolklEe8xd-Hj-10" value="" style="shape=partialRectangle;collapsible=0;dropTarget=0;pointerEvents=0;fillColor=none;top=0;left=0;bottom=0;right=0;points=[[0,0.5],[1,0.5]];portConstraint=eastwest;" parent="udVngvIpolklEe8xd-Hj-1" vertex="1">
          <mxGeometry y="90" width="270" height="30" as="geometry" />
        </mxCell>
        <mxCell id="udVngvIpolklEe8xd-Hj-11" value="" style="shape=partialRectangle;connectable=0;fillColor=none;top=0;left=0;bottom=0;right=0;editable=1;overflow=hidden;" parent="udVngvIpolklEe8xd-Hj-10" vertex="1">
          <mxGeometry width="30" height="30" as="geometry">
            <mxRectangle width="30" height="30" as="alternateBounds" />
          </mxGeometry>
        </mxCell>
        <mxCell id="udVngvIpolklEe8xd-Hj-12" value="LName" style="shape=partialRectangle;connectable=0;fillColor=none;top=0;left=0;bottom=0;right=0;align=left;spacingLeft=6;overflow=hidden;" parent="udVngvIpolklEe8xd-Hj-10" vertex="1">
          <mxGeometry x="30" width="150" height="30" as="geometry">
            <mxRectangle width="150" height="30" as="alternateBounds" />
          </mxGeometry>
        </mxCell>
        <mxCell id="udVngvIpolklEe8xd-Hj-13" value="varchar(80)" style="shape=partialRectangle;connectable=0;fillColor=none;top=0;left=0;bottom=0;right=0;align=center;spacingLeft=6;overflow=hidden;" parent="udVngvIpolklEe8xd-Hj-10" vertex="1">
          <mxGeometry x="180" width="90" height="30" as="geometry">
            <mxRectangle width="90" height="30" as="alternateBounds" />
          </mxGeometry>
        </mxCell>
        <mxCell id="udVngvIpolklEe8xd-Hj-14" value="" style="shape=partialRectangle;collapsible=0;dropTarget=0;pointerEvents=0;fillColor=none;top=0;left=0;bottom=0;right=0;points=[[0,0.5],[1,0.5]];portConstraint=eastwest;" parent="udVngvIpolklEe8xd-Hj-1" vertex="1">
          <mxGeometry y="120" width="270" height="30" as="geometry" />
        </mxCell>
        <mxCell id="udVngvIpolklEe8xd-Hj-15" value="" style="shape=partialRectangle;connectable=0;fillColor=none;top=0;left=0;bottom=0;right=0;editable=1;overflow=hidden;" parent="udVngvIpolklEe8xd-Hj-14" vertex="1">
          <mxGeometry width="30" height="30" as="geometry">
            <mxRectangle width="30" height="30" as="alternateBounds" />
          </mxGeometry>
        </mxCell>
        <mxCell id="udVngvIpolklEe8xd-Hj-16" value="FName" style="shape=partialRectangle;connectable=0;fillColor=none;top=0;left=0;bottom=0;right=0;align=left;spacingLeft=6;overflow=hidden;" parent="udVngvIpolklEe8xd-Hj-14" vertex="1">
          <mxGeometry x="30" width="150" height="30" as="geometry">
            <mxRectangle width="150" height="30" as="alternateBounds" />
          </mxGeometry>
        </mxCell>
        <mxCell id="udVngvIpolklEe8xd-Hj-17" value="varchar(70)" style="shape=partialRectangle;connectable=0;fillColor=none;top=0;left=0;bottom=0;right=0;align=center;spacingLeft=6;overflow=hidden;" parent="udVngvIpolklEe8xd-Hj-14" vertex="1">
          <mxGeometry x="180" width="90" height="30" as="geometry">
            <mxRectangle width="90" height="30" as="alternateBounds" />
          </mxGeometry>
        </mxCell>
        <mxCell id="udVngvIpolklEe8xd-Hj-18" value="" style="shape=partialRectangle;collapsible=0;dropTarget=0;pointerEvents=0;fillColor=none;top=0;left=0;bottom=0;right=0;points=[[0,0.5],[1,0.5]];portConstraint=eastwest;" parent="udVngvIpolklEe8xd-Hj-1" vertex="1">
          <mxGeometry y="150" width="270" height="30" as="geometry" />
        </mxCell>
        <mxCell id="udVngvIpolklEe8xd-Hj-19" value="" style="shape=partialRectangle;connectable=0;fillColor=none;top=0;left=0;bottom=0;right=0;editable=1;overflow=hidden;" parent="udVngvIpolklEe8xd-Hj-18" vertex="1">
          <mxGeometry width="30" height="30" as="geometry">
            <mxRectangle width="30" height="30" as="alternateBounds" />
          </mxGeometry>
        </mxCell>
        <mxCell id="udVngvIpolklEe8xd-Hj-20" value="MName" style="shape=partialRectangle;connectable=0;fillColor=none;top=0;left=0;bottom=0;right=0;align=left;spacingLeft=6;overflow=hidden;" parent="udVngvIpolklEe8xd-Hj-18" vertex="1">
          <mxGeometry x="30" width="150" height="30" as="geometry">
            <mxRectangle width="150" height="30" as="alternateBounds" />
          </mxGeometry>
        </mxCell>
        <mxCell id="udVngvIpolklEe8xd-Hj-21" value="varchar(100)" style="shape=partialRectangle;connectable=0;fillColor=none;top=0;left=0;bottom=0;right=0;align=center;spacingLeft=6;overflow=hidden;" parent="udVngvIpolklEe8xd-Hj-18" vertex="1">
          <mxGeometry x="180" width="90" height="30" as="geometry">
            <mxRectangle width="90" height="30" as="alternateBounds" />
          </mxGeometry>
        </mxCell>
        <mxCell id="udVngvIpolklEe8xd-Hj-22" value="" style="shape=partialRectangle;collapsible=0;dropTarget=0;pointerEvents=0;fillColor=none;top=0;left=0;bottom=0;right=0;points=[[0,0.5],[1,0.5]];portConstraint=eastwest;" parent="udVngvIpolklEe8xd-Hj-1" vertex="1">
          <mxGeometry y="180" width="270" height="30" as="geometry" />
        </mxCell>
        <mxCell id="udVngvIpolklEe8xd-Hj-23" value="" style="shape=partialRectangle;connectable=0;fillColor=none;top=0;left=0;bottom=0;right=0;editable=1;overflow=hidden;" parent="udVngvIpolklEe8xd-Hj-22" vertex="1">
          <mxGeometry width="30" height="30" as="geometry">
            <mxRectangle width="30" height="30" as="alternateBounds" />
          </mxGeometry>
        </mxCell>
        <mxCell id="udVngvIpolklEe8xd-Hj-24" value="Phone_number" style="shape=partialRectangle;connectable=0;fillColor=none;top=0;left=0;bottom=0;right=0;align=left;spacingLeft=6;overflow=hidden;" parent="udVngvIpolklEe8xd-Hj-22" vertex="1">
          <mxGeometry x="30" width="150" height="30" as="geometry">
            <mxRectangle width="150" height="30" as="alternateBounds" />
          </mxGeometry>
        </mxCell>
        <mxCell id="udVngvIpolklEe8xd-Hj-25" value="varchar(11)" style="shape=partialRectangle;connectable=0;fillColor=none;top=0;left=0;bottom=0;right=0;align=center;spacingLeft=6;overflow=hidden;" parent="udVngvIpolklEe8xd-Hj-22" vertex="1">
          <mxGeometry x="180" width="90" height="30" as="geometry">
            <mxRectangle width="90" height="30" as="alternateBounds" />
          </mxGeometry>
        </mxCell>
        <mxCell id="AN9Dfv3pexVEk53Ri0JX-51" value="" style="edgeStyle=orthogonalEdgeStyle;rounded=0;orthogonalLoop=1;jettySize=auto;html=1;exitX=0.5;exitY=0;exitDx=0;exitDy=0;entryX=1;entryY=0.5;entryDx=0;entryDy=0;" parent="1" source="xtTWW3wnDBbp2fTEAPTd-18" target="AN9Dfv3pexVEk53Ri0JX-22" edge="1">
          <mxGeometry relative="1" as="geometry">
            <mxPoint x="1470" y="480" as="targetPoint" />
          </mxGeometry>
        </mxCell>
        <mxCell id="AN9Dfv3pexVEk53Ri0JX-1" value="Events" style="shape=table;startSize=30;container=1;collapsible=1;childLayout=tableLayout;fixedRows=1;rowLines=0;fontStyle=1;align=center;resizeLast=1;" parent="1" vertex="1">
          <mxGeometry x="930" y="700" width="330" height="219.99999999999977" as="geometry" />
        </mxCell>
        <mxCell id="AN9Dfv3pexVEk53Ri0JX-2" value="" style="shape=partialRectangle;collapsible=0;dropTarget=0;pointerEvents=0;fillColor=none;top=0;left=0;bottom=1;right=0;points=[[0,0.5],[1,0.5]];portConstraint=eastwest;" parent="AN9Dfv3pexVEk53Ri0JX-1" vertex="1">
          <mxGeometry y="30" width="330" height="30" as="geometry" />
        </mxCell>
        <mxCell id="AN9Dfv3pexVEk53Ri0JX-3" value="PK" style="shape=partialRectangle;connectable=0;fillColor=none;top=0;left=0;bottom=0;right=0;fontStyle=1;overflow=hidden;" parent="AN9Dfv3pexVEk53Ri0JX-2" vertex="1">
          <mxGeometry width="30" height="30" as="geometry">
            <mxRectangle width="30" height="30" as="alternateBounds" />
          </mxGeometry>
        </mxCell>
        <mxCell id="AN9Dfv3pexVEk53Ri0JX-4" value="FieldName" style="shape=partialRectangle;connectable=0;fillColor=none;top=0;left=0;bottom=0;right=0;align=center;spacingLeft=6;fontStyle=5;overflow=hidden;" parent="AN9Dfv3pexVEk53Ri0JX-2" vertex="1">
          <mxGeometry x="30" width="150" height="30" as="geometry">
            <mxRectangle width="150" height="30" as="alternateBounds" />
          </mxGeometry>
        </mxCell>
        <mxCell id="AN9Dfv3pexVEk53Ri0JX-5" value="datatype" style="shape=partialRectangle;connectable=0;fillColor=none;top=0;left=0;bottom=0;right=0;align=center;spacingLeft=6;fontStyle=5;overflow=hidden;" parent="AN9Dfv3pexVEk53Ri0JX-2" vertex="1">
          <mxGeometry x="180" width="150" height="30" as="geometry">
            <mxRectangle width="150" height="30" as="alternateBounds" />
          </mxGeometry>
        </mxCell>
        <mxCell id="AN9Dfv3pexVEk53Ri0JX-6" value="" style="shape=partialRectangle;collapsible=0;dropTarget=0;pointerEvents=0;fillColor=none;top=0;left=0;bottom=0;right=0;points=[[0,0.5],[1,0.5]];portConstraint=eastwest;" parent="AN9Dfv3pexVEk53Ri0JX-1" vertex="1">
          <mxGeometry y="60" width="330" height="30" as="geometry" />
        </mxCell>
        <mxCell id="AN9Dfv3pexVEk53Ri0JX-7" value="PK" style="shape=partialRectangle;connectable=0;fillColor=none;top=0;left=0;bottom=0;right=0;editable=1;overflow=hidden;" parent="AN9Dfv3pexVEk53Ri0JX-6" vertex="1">
          <mxGeometry width="30" height="30" as="geometry">
            <mxRectangle width="30" height="30" as="alternateBounds" />
          </mxGeometry>
        </mxCell>
        <mxCell id="AN9Dfv3pexVEk53Ri0JX-8" value="Event_id " style="shape=partialRectangle;connectable=0;fillColor=none;top=0;left=0;bottom=0;right=0;align=left;spacingLeft=6;overflow=hidden;" parent="AN9Dfv3pexVEk53Ri0JX-6" vertex="1">
          <mxGeometry x="30" width="150" height="30" as="geometry">
            <mxRectangle width="150" height="30" as="alternateBounds" />
          </mxGeometry>
        </mxCell>
        <mxCell id="AN9Dfv3pexVEk53Ri0JX-9" value=" int " style="shape=partialRectangle;connectable=0;fillColor=none;top=0;left=0;bottom=0;right=0;align=center;spacingLeft=6;overflow=hidden;" parent="AN9Dfv3pexVEk53Ri0JX-6" vertex="1">
          <mxGeometry x="180" width="150" height="30" as="geometry">
            <mxRectangle width="150" height="30" as="alternateBounds" />
          </mxGeometry>
        </mxCell>
        <mxCell id="AN9Dfv3pexVEk53Ri0JX-10" value="" style="shape=partialRectangle;collapsible=0;dropTarget=0;pointerEvents=0;fillColor=none;top=0;left=0;bottom=0;right=0;points=[[0,0.5],[1,0.5]];portConstraint=eastwest;" parent="AN9Dfv3pexVEk53Ri0JX-1" vertex="1">
          <mxGeometry y="90" width="330" height="30" as="geometry" />
        </mxCell>
        <mxCell id="AN9Dfv3pexVEk53Ri0JX-11" value="FK" style="shape=partialRectangle;connectable=0;fillColor=none;top=0;left=0;bottom=0;right=0;editable=1;overflow=hidden;" parent="AN9Dfv3pexVEk53Ri0JX-10" vertex="1">
          <mxGeometry width="30" height="30" as="geometry">
            <mxRectangle width="30" height="30" as="alternateBounds" />
          </mxGeometry>
        </mxCell>
        <mxCell id="AN9Dfv3pexVEk53Ri0JX-12" value="Tour_id" style="shape=partialRectangle;connectable=0;fillColor=none;top=0;left=0;bottom=0;right=0;align=left;spacingLeft=6;overflow=hidden;" parent="AN9Dfv3pexVEk53Ri0JX-10" vertex="1">
          <mxGeometry x="30" width="150" height="30" as="geometry">
            <mxRectangle width="150" height="30" as="alternateBounds" />
          </mxGeometry>
        </mxCell>
        <mxCell id="AN9Dfv3pexVEk53Ri0JX-13" value=" int " style="shape=partialRectangle;connectable=0;fillColor=none;top=0;left=0;bottom=0;right=0;align=center;spacingLeft=6;overflow=hidden;" parent="AN9Dfv3pexVEk53Ri0JX-10" vertex="1">
          <mxGeometry x="180" width="150" height="30" as="geometry">
            <mxRectangle width="150" height="30" as="alternateBounds" />
          </mxGeometry>
        </mxCell>
        <mxCell id="AN9Dfv3pexVEk53Ri0JX-14" value="" style="shape=partialRectangle;collapsible=0;dropTarget=0;pointerEvents=0;fillColor=none;top=0;left=0;bottom=0;right=0;points=[[0,0.5],[1,0.5]];portConstraint=eastwest;" parent="AN9Dfv3pexVEk53Ri0JX-1" vertex="1">
          <mxGeometry y="120" width="330" height="30" as="geometry" />
        </mxCell>
        <mxCell id="AN9Dfv3pexVEk53Ri0JX-15" value="" style="shape=partialRectangle;connectable=0;fillColor=none;top=0;left=0;bottom=0;right=0;editable=1;overflow=hidden;" parent="AN9Dfv3pexVEk53Ri0JX-14" vertex="1">
          <mxGeometry width="30" height="30" as="geometry">
            <mxRectangle width="30" height="30" as="alternateBounds" />
          </mxGeometry>
        </mxCell>
        <mxCell id="AN9Dfv3pexVEk53Ri0JX-16" value="Start_time" style="shape=partialRectangle;connectable=0;fillColor=none;top=0;left=0;bottom=0;right=0;align=left;spacingLeft=6;overflow=hidden;" parent="AN9Dfv3pexVEk53Ri0JX-14" vertex="1">
          <mxGeometry x="30" width="150" height="30" as="geometry">
            <mxRectangle width="150" height="30" as="alternateBounds" />
          </mxGeometry>
        </mxCell>
        <mxCell id="AN9Dfv3pexVEk53Ri0JX-17" value="int" style="shape=partialRectangle;connectable=0;fillColor=none;top=0;left=0;bottom=0;right=0;align=center;spacingLeft=6;overflow=hidden;" parent="AN9Dfv3pexVEk53Ri0JX-14" vertex="1">
          <mxGeometry x="180" width="150" height="30" as="geometry">
            <mxRectangle width="150" height="30" as="alternateBounds" />
          </mxGeometry>
        </mxCell>
        <mxCell id="AN9Dfv3pexVEk53Ri0JX-18" value="" style="shape=partialRectangle;collapsible=0;dropTarget=0;pointerEvents=0;fillColor=none;top=0;left=0;bottom=0;right=0;points=[[0,0.5],[1,0.5]];portConstraint=eastwest;" parent="AN9Dfv3pexVEk53Ri0JX-1" vertex="1">
          <mxGeometry y="150" width="330" height="30" as="geometry" />
        </mxCell>
        <mxCell id="AN9Dfv3pexVEk53Ri0JX-19" value="" style="shape=partialRectangle;connectable=0;fillColor=none;top=0;left=0;bottom=0;right=0;editable=1;overflow=hidden;" parent="AN9Dfv3pexVEk53Ri0JX-18" vertex="1">
          <mxGeometry width="30" height="30" as="geometry">
            <mxRectangle width="30" height="30" as="alternateBounds" />
          </mxGeometry>
        </mxCell>
        <mxCell id="AN9Dfv3pexVEk53Ri0JX-20" value="End_Time" style="shape=partialRectangle;connectable=0;fillColor=none;top=0;left=0;bottom=0;right=0;align=left;spacingLeft=6;overflow=hidden;" parent="AN9Dfv3pexVEk53Ri0JX-18" vertex="1">
          <mxGeometry x="30" width="150" height="30" as="geometry">
            <mxRectangle width="150" height="30" as="alternateBounds" />
          </mxGeometry>
        </mxCell>
        <mxCell id="AN9Dfv3pexVEk53Ri0JX-21" value=" int " style="shape=partialRectangle;connectable=0;fillColor=none;top=0;left=0;bottom=0;right=0;align=center;spacingLeft=6;overflow=hidden;" parent="AN9Dfv3pexVEk53Ri0JX-18" vertex="1">
          <mxGeometry x="180" width="150" height="30" as="geometry">
            <mxRectangle width="150" height="30" as="alternateBounds" />
          </mxGeometry>
        </mxCell>
        <mxCell id="AN9Dfv3pexVEk53Ri0JX-22" value="" style="shape=partialRectangle;collapsible=0;dropTarget=0;pointerEvents=0;fillColor=none;top=0;left=0;bottom=0;right=0;points=[[0,0.5],[1,0.5]];portConstraint=eastwest;" parent="AN9Dfv3pexVEk53Ri0JX-1" vertex="1">
          <mxGeometry y="180" width="330" height="30" as="geometry" />
        </mxCell>
        <mxCell id="AN9Dfv3pexVEk53Ri0JX-23" value="FK" style="shape=partialRectangle;connectable=0;fillColor=none;top=0;left=0;bottom=0;right=0;editable=1;overflow=hidden;" parent="AN9Dfv3pexVEk53Ri0JX-22" vertex="1">
          <mxGeometry width="30" height="30" as="geometry">
            <mxRectangle width="30" height="30" as="alternateBounds" />
          </mxGeometry>
        </mxCell>
        <mxCell id="AN9Dfv3pexVEk53Ri0JX-24" value="Group_id" style="shape=partialRectangle;connectable=0;fillColor=none;top=0;left=0;bottom=0;right=0;align=left;spacingLeft=6;overflow=hidden;" parent="AN9Dfv3pexVEk53Ri0JX-22" vertex="1">
          <mxGeometry x="30" width="150" height="30" as="geometry">
            <mxRectangle width="150" height="30" as="alternateBounds" />
          </mxGeometry>
        </mxCell>
        <mxCell id="AN9Dfv3pexVEk53Ri0JX-25" value=" int " style="shape=partialRectangle;connectable=0;fillColor=none;top=0;left=0;bottom=0;right=0;align=center;spacingLeft=6;overflow=hidden;" parent="AN9Dfv3pexVEk53Ri0JX-22" vertex="1">
          <mxGeometry x="180" width="150" height="30" as="geometry">
            <mxRectangle width="150" height="30" as="alternateBounds" />
          </mxGeometry>
        </mxCell>
        <mxCell id="SIsNkpew8JtZsZhVSthF-43" value="" style="edgeStyle=orthogonalEdgeStyle;rounded=0;orthogonalLoop=1;jettySize=auto;html=1;entryX=0;entryY=0.5;entryDx=0;entryDy=0;" parent="1" source="SIsNkpew8JtZsZhVSthF-1" target="AN9Dfv3pexVEk53Ri0JX-10" edge="1">
          <mxGeometry relative="1" as="geometry">
            <mxPoint x="800" y="895.0000000000002" as="targetPoint" />
          </mxGeometry>
        </mxCell>
        <mxCell id="SIsNkpew8JtZsZhVSthF-1" value="Tours_List" style="shape=table;startSize=30;container=1;collapsible=1;childLayout=tableLayout;fixedRows=1;rowLines=0;fontStyle=1;align=center;resizeLast=1;" parent="1" vertex="1">
          <mxGeometry x="390" y="800" width="330" height="190" as="geometry" />
        </mxCell>
        <mxCell id="SIsNkpew8JtZsZhVSthF-2" value="" style="shape=partialRectangle;collapsible=0;dropTarget=0;pointerEvents=0;fillColor=none;top=0;left=0;bottom=1;right=0;points=[[0,0.5],[1,0.5]];portConstraint=eastwest;" parent="SIsNkpew8JtZsZhVSthF-1" vertex="1">
          <mxGeometry y="30" width="330" height="30" as="geometry" />
        </mxCell>
        <mxCell id="SIsNkpew8JtZsZhVSthF-3" value="PK" style="shape=partialRectangle;connectable=0;fillColor=none;top=0;left=0;bottom=0;right=0;fontStyle=1;overflow=hidden;" parent="SIsNkpew8JtZsZhVSthF-2" vertex="1">
          <mxGeometry width="30" height="30" as="geometry">
            <mxRectangle width="30" height="30" as="alternateBounds" />
          </mxGeometry>
        </mxCell>
        <mxCell id="SIsNkpew8JtZsZhVSthF-4" value="FieldName" style="shape=partialRectangle;connectable=0;fillColor=none;top=0;left=0;bottom=0;right=0;align=center;spacingLeft=6;fontStyle=5;overflow=hidden;" parent="SIsNkpew8JtZsZhVSthF-2" vertex="1">
          <mxGeometry x="30" width="150" height="30" as="geometry">
            <mxRectangle width="150" height="30" as="alternateBounds" />
          </mxGeometry>
        </mxCell>
        <mxCell id="SIsNkpew8JtZsZhVSthF-5" value="datatype" style="shape=partialRectangle;connectable=0;fillColor=none;top=0;left=0;bottom=0;right=0;align=center;spacingLeft=6;fontStyle=5;overflow=hidden;" parent="SIsNkpew8JtZsZhVSthF-2" vertex="1">
          <mxGeometry x="180" width="150" height="30" as="geometry">
            <mxRectangle width="150" height="30" as="alternateBounds" />
          </mxGeometry>
        </mxCell>
        <mxCell id="SIsNkpew8JtZsZhVSthF-6" value="" style="shape=partialRectangle;collapsible=0;dropTarget=0;pointerEvents=0;fillColor=none;top=0;left=0;bottom=0;right=0;points=[[0,0.5],[1,0.5]];portConstraint=eastwest;" parent="SIsNkpew8JtZsZhVSthF-1" vertex="1">
          <mxGeometry y="60" width="330" height="30" as="geometry" />
        </mxCell>
        <mxCell id="SIsNkpew8JtZsZhVSthF-7" value="PK" style="shape=partialRectangle;connectable=0;fillColor=none;top=0;left=0;bottom=0;right=0;editable=1;overflow=hidden;" parent="SIsNkpew8JtZsZhVSthF-6" vertex="1">
          <mxGeometry width="30" height="30" as="geometry">
            <mxRectangle width="30" height="30" as="alternateBounds" />
          </mxGeometry>
        </mxCell>
        <mxCell id="SIsNkpew8JtZsZhVSthF-8" value="Tour_id " style="shape=partialRectangle;connectable=0;fillColor=none;top=0;left=0;bottom=0;right=0;align=left;spacingLeft=6;overflow=hidden;" parent="SIsNkpew8JtZsZhVSthF-6" vertex="1">
          <mxGeometry x="30" width="150" height="30" as="geometry">
            <mxRectangle width="150" height="30" as="alternateBounds" />
          </mxGeometry>
        </mxCell>
        <mxCell id="SIsNkpew8JtZsZhVSthF-9" value=" int " style="shape=partialRectangle;connectable=0;fillColor=none;top=0;left=0;bottom=0;right=0;align=center;spacingLeft=6;overflow=hidden;" parent="SIsNkpew8JtZsZhVSthF-6" vertex="1">
          <mxGeometry x="180" width="150" height="30" as="geometry">
            <mxRectangle width="150" height="30" as="alternateBounds" />
          </mxGeometry>
        </mxCell>
        <mxCell id="SIsNkpew8JtZsZhVSthF-10" value="" style="shape=partialRectangle;collapsible=0;dropTarget=0;pointerEvents=0;fillColor=none;top=0;left=0;bottom=0;right=0;points=[[0,0.5],[1,0.5]];portConstraint=eastwest;" parent="SIsNkpew8JtZsZhVSthF-1" vertex="1">
          <mxGeometry y="90" width="330" height="30" as="geometry" />
        </mxCell>
        <mxCell id="SIsNkpew8JtZsZhVSthF-11" value="" style="shape=partialRectangle;connectable=0;fillColor=none;top=0;left=0;bottom=0;right=0;editable=1;overflow=hidden;" parent="SIsNkpew8JtZsZhVSthF-10" vertex="1">
          <mxGeometry width="30" height="30" as="geometry">
            <mxRectangle width="30" height="30" as="alternateBounds" />
          </mxGeometry>
        </mxCell>
        <mxCell id="SIsNkpew8JtZsZhVSthF-12" value="Tour_Name " style="shape=partialRectangle;connectable=0;fillColor=none;top=0;left=0;bottom=0;right=0;align=left;spacingLeft=6;overflow=hidden;" parent="SIsNkpew8JtZsZhVSthF-10" vertex="1">
          <mxGeometry x="30" width="150" height="30" as="geometry">
            <mxRectangle width="150" height="30" as="alternateBounds" />
          </mxGeometry>
        </mxCell>
        <mxCell id="SIsNkpew8JtZsZhVSthF-13" value="nvarchar(100)" style="shape=partialRectangle;connectable=0;fillColor=none;top=0;left=0;bottom=0;right=0;align=center;spacingLeft=6;overflow=hidden;" parent="SIsNkpew8JtZsZhVSthF-10" vertex="1">
          <mxGeometry x="180" width="150" height="30" as="geometry">
            <mxRectangle width="150" height="30" as="alternateBounds" />
          </mxGeometry>
        </mxCell>
        <mxCell id="SIsNkpew8JtZsZhVSthF-14" value="" style="shape=partialRectangle;collapsible=0;dropTarget=0;pointerEvents=0;fillColor=none;top=0;left=0;bottom=0;right=0;points=[[0,0.5],[1,0.5]];portConstraint=eastwest;" parent="SIsNkpew8JtZsZhVSthF-1" vertex="1">
          <mxGeometry y="120" width="330" height="30" as="geometry" />
        </mxCell>
        <mxCell id="SIsNkpew8JtZsZhVSthF-15" value="" style="shape=partialRectangle;connectable=0;fillColor=none;top=0;left=0;bottom=0;right=0;editable=1;overflow=hidden;" parent="SIsNkpew8JtZsZhVSthF-14" vertex="1">
          <mxGeometry width="30" height="30" as="geometry">
            <mxRectangle width="30" height="30" as="alternateBounds" />
          </mxGeometry>
        </mxCell>
        <mxCell id="SIsNkpew8JtZsZhVSthF-16" value="Length_hours" style="shape=partialRectangle;connectable=0;fillColor=none;top=0;left=0;bottom=0;right=0;align=left;spacingLeft=6;overflow=hidden;" parent="SIsNkpew8JtZsZhVSthF-14" vertex="1">
          <mxGeometry x="30" width="150" height="30" as="geometry">
            <mxRectangle width="150" height="30" as="alternateBounds" />
          </mxGeometry>
        </mxCell>
        <mxCell id="SIsNkpew8JtZsZhVSthF-17" value="int" style="shape=partialRectangle;connectable=0;fillColor=none;top=0;left=0;bottom=0;right=0;align=center;spacingLeft=6;overflow=hidden;" parent="SIsNkpew8JtZsZhVSthF-14" vertex="1">
          <mxGeometry x="180" width="150" height="30" as="geometry">
            <mxRectangle width="150" height="30" as="alternateBounds" />
          </mxGeometry>
        </mxCell>
        <mxCell id="SIsNkpew8JtZsZhVSthF-18" value="" style="shape=partialRectangle;collapsible=0;dropTarget=0;pointerEvents=0;fillColor=none;top=0;left=0;bottom=0;right=0;points=[[0,0.5],[1,0.5]];portConstraint=eastwest;" parent="SIsNkpew8JtZsZhVSthF-1" vertex="1">
          <mxGeometry y="150" width="330" height="30" as="geometry" />
        </mxCell>
        <mxCell id="SIsNkpew8JtZsZhVSthF-19" value="" style="shape=partialRectangle;connectable=0;fillColor=none;top=0;left=0;bottom=0;right=0;editable=1;overflow=hidden;" parent="SIsNkpew8JtZsZhVSthF-18" vertex="1">
          <mxGeometry width="30" height="30" as="geometry">
            <mxRectangle width="30" height="30" as="alternateBounds" />
          </mxGeometry>
        </mxCell>
        <mxCell id="SIsNkpew8JtZsZhVSthF-20" value="Description" style="shape=partialRectangle;connectable=0;fillColor=none;top=0;left=0;bottom=0;right=0;align=left;spacingLeft=6;overflow=hidden;" parent="SIsNkpew8JtZsZhVSthF-18" vertex="1">
          <mxGeometry x="30" width="150" height="30" as="geometry">
            <mxRectangle width="150" height="30" as="alternateBounds" />
          </mxGeometry>
        </mxCell>
        <mxCell id="SIsNkpew8JtZsZhVSthF-21" value="nvarchar(200)" style="shape=partialRectangle;connectable=0;fillColor=none;top=0;left=0;bottom=0;right=0;align=center;spacingLeft=6;overflow=hidden;" parent="SIsNkpew8JtZsZhVSthF-18" vertex="1">
          <mxGeometry x="180" width="150" height="30" as="geometry">
            <mxRectangle width="150" height="30" as="alternateBounds" />
          </mxGeometry>
        </mxCell>
        <mxCell id="SIsNkpew8JtZsZhVSthF-136" value="" style="edgeStyle=orthogonalEdgeStyle;rounded=0;orthogonalLoop=1;jettySize=auto;html=1;" parent="1" source="SIsNkpew8JtZsZhVSthF-69" target="xtTWW3wnDBbp2fTEAPTd-23" edge="1">
          <mxGeometry relative="1" as="geometry">
            <mxPoint x="360" y="485.0000000000002" as="targetPoint" />
          </mxGeometry>
        </mxCell>
        <mxCell id="SIsNkpew8JtZsZhVSthF-69" value="Clients" style="shape=table;startSize=30;container=1;collapsible=1;childLayout=tableLayout;fixedRows=1;rowLines=0;fontStyle=1;align=center;resizeLast=1;" parent="1" vertex="1">
          <mxGeometry x="-20" y="350" width="300" height="270" as="geometry">
            <mxRectangle x="70" y="60" width="70" height="30" as="alternateBounds" />
          </mxGeometry>
        </mxCell>
        <mxCell id="SIsNkpew8JtZsZhVSthF-70" value="" style="shape=partialRectangle;collapsible=0;dropTarget=0;pointerEvents=0;fillColor=none;top=0;left=0;bottom=1;right=0;points=[[0,0.5],[1,0.5]];portConstraint=eastwest;" parent="SIsNkpew8JtZsZhVSthF-69" vertex="1">
          <mxGeometry y="30" width="300" height="30" as="geometry" />
        </mxCell>
        <mxCell id="SIsNkpew8JtZsZhVSthF-71" value="PK" style="shape=partialRectangle;connectable=0;fillColor=none;top=0;left=0;bottom=0;right=0;fontStyle=1;overflow=hidden;" parent="SIsNkpew8JtZsZhVSthF-70" vertex="1">
          <mxGeometry width="30" height="30" as="geometry">
            <mxRectangle width="30" height="30" as="alternateBounds" />
          </mxGeometry>
        </mxCell>
        <mxCell id="SIsNkpew8JtZsZhVSthF-72" value="FieldName" style="shape=partialRectangle;connectable=0;fillColor=none;top=0;left=0;bottom=0;right=0;align=center;spacingLeft=6;fontStyle=5;overflow=hidden;" parent="SIsNkpew8JtZsZhVSthF-70" vertex="1">
          <mxGeometry x="30" width="150" height="30" as="geometry">
            <mxRectangle width="150" height="30" as="alternateBounds" />
          </mxGeometry>
        </mxCell>
        <mxCell id="SIsNkpew8JtZsZhVSthF-73" value="datatype" style="shape=partialRectangle;connectable=0;fillColor=none;top=0;left=0;bottom=0;right=0;align=center;spacingLeft=6;fontStyle=5;overflow=hidden;" parent="SIsNkpew8JtZsZhVSthF-70" vertex="1">
          <mxGeometry x="180" width="120" height="30" as="geometry">
            <mxRectangle width="120" height="30" as="alternateBounds" />
          </mxGeometry>
        </mxCell>
        <mxCell id="SIsNkpew8JtZsZhVSthF-74" value="" style="shape=partialRectangle;collapsible=0;dropTarget=0;pointerEvents=0;fillColor=none;top=0;left=0;bottom=0;right=0;points=[[0,0.5],[1,0.5]];portConstraint=eastwest;" parent="SIsNkpew8JtZsZhVSthF-69" vertex="1">
          <mxGeometry y="60" width="300" height="30" as="geometry" />
        </mxCell>
        <mxCell id="SIsNkpew8JtZsZhVSthF-75" value="" style="shape=partialRectangle;connectable=0;fillColor=none;top=0;left=0;bottom=0;right=0;editable=1;overflow=hidden;" parent="SIsNkpew8JtZsZhVSthF-74" vertex="1">
          <mxGeometry width="30" height="30" as="geometry">
            <mxRectangle width="30" height="30" as="alternateBounds" />
          </mxGeometry>
        </mxCell>
        <mxCell id="SIsNkpew8JtZsZhVSthF-76" value="" style="shape=partialRectangle;connectable=0;fillColor=none;top=0;left=0;bottom=0;right=0;align=left;spacingLeft=6;overflow=hidden;" parent="SIsNkpew8JtZsZhVSthF-74" vertex="1">
          <mxGeometry x="30" width="150" height="30" as="geometry">
            <mxRectangle width="150" height="30" as="alternateBounds" />
          </mxGeometry>
        </mxCell>
        <mxCell id="SIsNkpew8JtZsZhVSthF-77" value="" style="shape=partialRectangle;connectable=0;fillColor=none;top=0;left=0;bottom=0;right=0;align=center;spacingLeft=6;overflow=hidden;" parent="SIsNkpew8JtZsZhVSthF-74" vertex="1">
          <mxGeometry x="180" width="120" height="30" as="geometry">
            <mxRectangle width="120" height="30" as="alternateBounds" />
          </mxGeometry>
        </mxCell>
        <mxCell id="SIsNkpew8JtZsZhVSthF-78" value="" style="shape=partialRectangle;collapsible=0;dropTarget=0;pointerEvents=0;fillColor=none;top=0;left=0;bottom=0;right=0;points=[[0,0.5],[1,0.5]];portConstraint=eastwest;" parent="SIsNkpew8JtZsZhVSthF-69" vertex="1">
          <mxGeometry y="90" width="300" height="30" as="geometry" />
        </mxCell>
        <mxCell id="SIsNkpew8JtZsZhVSthF-79" value="" style="shape=partialRectangle;connectable=0;fillColor=none;top=0;left=0;bottom=0;right=0;editable=1;overflow=hidden;" parent="SIsNkpew8JtZsZhVSthF-78" vertex="1">
          <mxGeometry width="30" height="30" as="geometry">
            <mxRectangle width="30" height="30" as="alternateBounds" />
          </mxGeometry>
        </mxCell>
        <mxCell id="SIsNkpew8JtZsZhVSthF-80" value="" style="shape=partialRectangle;connectable=0;fillColor=none;top=0;left=0;bottom=0;right=0;align=left;spacingLeft=6;overflow=hidden;" parent="SIsNkpew8JtZsZhVSthF-78" vertex="1">
          <mxGeometry x="30" width="150" height="30" as="geometry">
            <mxRectangle width="150" height="30" as="alternateBounds" />
          </mxGeometry>
        </mxCell>
        <mxCell id="SIsNkpew8JtZsZhVSthF-81" value="" style="shape=partialRectangle;connectable=0;fillColor=none;top=0;left=0;bottom=0;right=0;align=center;spacingLeft=6;overflow=hidden;" parent="SIsNkpew8JtZsZhVSthF-78" vertex="1">
          <mxGeometry x="180" width="120" height="30" as="geometry">
            <mxRectangle width="120" height="30" as="alternateBounds" />
          </mxGeometry>
        </mxCell>
        <mxCell id="SIsNkpew8JtZsZhVSthF-82" value="" style="shape=partialRectangle;collapsible=0;dropTarget=0;pointerEvents=0;fillColor=none;top=0;left=0;bottom=0;right=0;points=[[0,0.5],[1,0.5]];portConstraint=eastwest;" parent="SIsNkpew8JtZsZhVSthF-69" vertex="1">
          <mxGeometry y="120" width="300" height="30" as="geometry" />
        </mxCell>
        <mxCell id="SIsNkpew8JtZsZhVSthF-83" value="FK" style="shape=partialRectangle;connectable=0;fillColor=none;top=0;left=0;bottom=0;right=0;editable=1;overflow=hidden;" parent="SIsNkpew8JtZsZhVSthF-82" vertex="1">
          <mxGeometry width="30" height="30" as="geometry">
            <mxRectangle width="30" height="30" as="alternateBounds" />
          </mxGeometry>
        </mxCell>
        <mxCell id="SIsNkpew8JtZsZhVSthF-84" value="Group_id" style="shape=partialRectangle;connectable=0;fillColor=none;top=0;left=0;bottom=0;right=0;align=left;spacingLeft=6;overflow=hidden;" parent="SIsNkpew8JtZsZhVSthF-82" vertex="1">
          <mxGeometry x="30" width="150" height="30" as="geometry">
            <mxRectangle width="150" height="30" as="alternateBounds" />
          </mxGeometry>
        </mxCell>
        <mxCell id="SIsNkpew8JtZsZhVSthF-85" value=" int " style="shape=partialRectangle;connectable=0;fillColor=none;top=0;left=0;bottom=0;right=0;align=center;spacingLeft=6;overflow=hidden;" parent="SIsNkpew8JtZsZhVSthF-82" vertex="1">
          <mxGeometry x="180" width="120" height="30" as="geometry">
            <mxRectangle width="120" height="30" as="alternateBounds" />
          </mxGeometry>
        </mxCell>
        <mxCell id="SIsNkpew8JtZsZhVSthF-86" value="" style="shape=partialRectangle;collapsible=0;dropTarget=0;pointerEvents=0;fillColor=none;top=0;left=0;bottom=0;right=0;points=[[0,0.5],[1,0.5]];portConstraint=eastwest;" parent="SIsNkpew8JtZsZhVSthF-69" vertex="1">
          <mxGeometry y="150" width="300" height="30" as="geometry" />
        </mxCell>
        <mxCell id="SIsNkpew8JtZsZhVSthF-87" value="" style="shape=partialRectangle;connectable=0;fillColor=none;top=0;left=0;bottom=0;right=0;editable=1;overflow=hidden;" parent="SIsNkpew8JtZsZhVSthF-86" vertex="1">
          <mxGeometry width="30" height="30" as="geometry">
            <mxRectangle width="30" height="30" as="alternateBounds" />
          </mxGeometry>
        </mxCell>
        <mxCell id="SIsNkpew8JtZsZhVSthF-88" value="LName" style="shape=partialRectangle;connectable=0;fillColor=none;top=0;left=0;bottom=0;right=0;align=left;spacingLeft=6;overflow=hidden;" parent="SIsNkpew8JtZsZhVSthF-86" vertex="1">
          <mxGeometry x="30" width="150" height="30" as="geometry">
            <mxRectangle width="150" height="30" as="alternateBounds" />
          </mxGeometry>
        </mxCell>
        <mxCell id="SIsNkpew8JtZsZhVSthF-89" value="varchar(80)" style="shape=partialRectangle;connectable=0;fillColor=none;top=0;left=0;bottom=0;right=0;align=center;spacingLeft=6;overflow=hidden;" parent="SIsNkpew8JtZsZhVSthF-86" vertex="1">
          <mxGeometry x="180" width="120" height="30" as="geometry">
            <mxRectangle width="120" height="30" as="alternateBounds" />
          </mxGeometry>
        </mxCell>
        <mxCell id="SIsNkpew8JtZsZhVSthF-90" value="" style="shape=partialRectangle;collapsible=0;dropTarget=0;pointerEvents=0;fillColor=none;top=0;left=0;bottom=0;right=0;points=[[0,0.5],[1,0.5]];portConstraint=eastwest;" parent="SIsNkpew8JtZsZhVSthF-69" vertex="1">
          <mxGeometry y="180" width="300" height="30" as="geometry" />
        </mxCell>
        <mxCell id="SIsNkpew8JtZsZhVSthF-91" value="" style="shape=partialRectangle;connectable=0;fillColor=none;top=0;left=0;bottom=0;right=0;editable=1;overflow=hidden;" parent="SIsNkpew8JtZsZhVSthF-90" vertex="1">
          <mxGeometry width="30" height="30" as="geometry">
            <mxRectangle width="30" height="30" as="alternateBounds" />
          </mxGeometry>
        </mxCell>
        <mxCell id="SIsNkpew8JtZsZhVSthF-92" value="FName" style="shape=partialRectangle;connectable=0;fillColor=none;top=0;left=0;bottom=0;right=0;align=left;spacingLeft=6;overflow=hidden;" parent="SIsNkpew8JtZsZhVSthF-90" vertex="1">
          <mxGeometry x="30" width="150" height="30" as="geometry">
            <mxRectangle width="150" height="30" as="alternateBounds" />
          </mxGeometry>
        </mxCell>
        <mxCell id="SIsNkpew8JtZsZhVSthF-93" value=" varchar(70)" style="shape=partialRectangle;connectable=0;fillColor=none;top=0;left=0;bottom=0;right=0;align=center;spacingLeft=6;overflow=hidden;" parent="SIsNkpew8JtZsZhVSthF-90" vertex="1">
          <mxGeometry x="180" width="120" height="30" as="geometry">
            <mxRectangle width="120" height="30" as="alternateBounds" />
          </mxGeometry>
        </mxCell>
        <mxCell id="SIsNkpew8JtZsZhVSthF-94" value="" style="shape=partialRectangle;collapsible=0;dropTarget=0;pointerEvents=0;fillColor=none;top=0;left=0;bottom=0;right=0;points=[[0,0.5],[1,0.5]];portConstraint=eastwest;" parent="SIsNkpew8JtZsZhVSthF-69" vertex="1">
          <mxGeometry y="210" width="300" height="30" as="geometry" />
        </mxCell>
        <mxCell id="SIsNkpew8JtZsZhVSthF-95" value="" style="shape=partialRectangle;connectable=0;fillColor=none;top=0;left=0;bottom=0;right=0;editable=1;overflow=hidden;" parent="SIsNkpew8JtZsZhVSthF-94" vertex="1">
          <mxGeometry width="30" height="30" as="geometry">
            <mxRectangle width="30" height="30" as="alternateBounds" />
          </mxGeometry>
        </mxCell>
        <mxCell id="SIsNkpew8JtZsZhVSthF-96" value="LName" style="shape=partialRectangle;connectable=0;fillColor=none;top=0;left=0;bottom=0;right=0;align=left;spacingLeft=6;overflow=hidden;" parent="SIsNkpew8JtZsZhVSthF-94" vertex="1">
          <mxGeometry x="30" width="150" height="30" as="geometry">
            <mxRectangle width="150" height="30" as="alternateBounds" />
          </mxGeometry>
        </mxCell>
        <mxCell id="SIsNkpew8JtZsZhVSthF-97" value="varchar(100)" style="shape=partialRectangle;connectable=0;fillColor=none;top=0;left=0;bottom=0;right=0;align=center;spacingLeft=6;overflow=hidden;" parent="SIsNkpew8JtZsZhVSthF-94" vertex="1">
          <mxGeometry x="180" width="120" height="30" as="geometry">
            <mxRectangle width="120" height="30" as="alternateBounds" />
          </mxGeometry>
        </mxCell>
        <mxCell id="SIsNkpew8JtZsZhVSthF-98" value="" style="shape=partialRectangle;collapsible=0;dropTarget=0;pointerEvents=0;fillColor=none;top=0;left=0;bottom=0;right=0;points=[[0,0.5],[1,0.5]];portConstraint=eastwest;" parent="SIsNkpew8JtZsZhVSthF-69" vertex="1">
          <mxGeometry y="240" width="300" height="30" as="geometry" />
        </mxCell>
        <mxCell id="SIsNkpew8JtZsZhVSthF-99" value="" style="shape=partialRectangle;connectable=0;fillColor=none;top=0;left=0;bottom=0;right=0;editable=1;overflow=hidden;" parent="SIsNkpew8JtZsZhVSthF-98" vertex="1">
          <mxGeometry width="30" height="30" as="geometry">
            <mxRectangle width="30" height="30" as="alternateBounds" />
          </mxGeometry>
        </mxCell>
        <mxCell id="SIsNkpew8JtZsZhVSthF-100" value="Phone_number" style="shape=partialRectangle;connectable=0;fillColor=none;top=0;left=0;bottom=0;right=0;align=left;spacingLeft=6;overflow=hidden;" parent="SIsNkpew8JtZsZhVSthF-98" vertex="1">
          <mxGeometry x="30" width="150" height="30" as="geometry">
            <mxRectangle width="150" height="30" as="alternateBounds" />
          </mxGeometry>
        </mxCell>
        <mxCell id="SIsNkpew8JtZsZhVSthF-101" value="varchar(11)" style="shape=partialRectangle;connectable=0;fillColor=none;top=0;left=0;bottom=0;right=0;align=center;spacingLeft=6;overflow=hidden;" parent="SIsNkpew8JtZsZhVSthF-98" vertex="1">
          <mxGeometry x="180" width="120" height="30" as="geometry">
            <mxRectangle width="120" height="30" as="alternateBounds" />
          </mxGeometry>
        </mxCell>
      </root>
    </mxGraphModel>
  </diagram>
  <diagram id="wm6sGy-4uBf7_qblyZtX" name="Use-Case">
    <mxGraphModel dx="2249" dy="1874" grid="1" gridSize="10" guides="1" tooltips="1" connect="1" arrows="1" fold="1" page="1" pageScale="1" pageWidth="827" pageHeight="1169" math="0" shadow="0">
      <root>
        <mxCell id="SWJi1FQ2j5csYNJAJ8vP-0" />
        <mxCell id="SWJi1FQ2j5csYNJAJ8vP-1" parent="SWJi1FQ2j5csYNJAJ8vP-0" />
        <mxCell id="SWJi1FQ2j5csYNJAJ8vP-4" style="edgeStyle=orthogonalEdgeStyle;rounded=0;orthogonalLoop=1;jettySize=auto;html=1;exitX=0.5;exitY=0.5;exitDx=0;exitDy=0;exitPerimeter=0;entryX=0.5;entryY=0.5;entryDx=0;entryDy=0;entryPerimeter=0;endArrow=block;endFill=0;" parent="SWJi1FQ2j5csYNJAJ8vP-1" source="SWJi1FQ2j5csYNJAJ8vP-2" target="SWJi1FQ2j5csYNJAJ8vP-3" edge="1">
          <mxGeometry relative="1" as="geometry" />
        </mxCell>
        <mxCell id="SWJi1FQ2j5csYNJAJ8vP-2" value="Пользователь" style="shape=umlActor;verticalLabelPosition=bottom;verticalAlign=top;html=1;outlineConnect=0;align=center;" parent="SWJi1FQ2j5csYNJAJ8vP-1" vertex="1">
          <mxGeometry x="-160" y="270" width="30" height="60" as="geometry" />
        </mxCell>
        <mxCell id="SWJi1FQ2j5csYNJAJ8vP-3" value="Авторизированный&lt;br&gt;пользователь" style="shape=umlActor;verticalLabelPosition=bottom;verticalAlign=top;html=1;outlineConnect=0;align=center;" parent="SWJi1FQ2j5csYNJAJ8vP-1" vertex="1">
          <mxGeometry x="44.5" y="270" width="30" height="60" as="geometry" />
        </mxCell>
        <mxCell id="SWJi1FQ2j5csYNJAJ8vP-9" value="Просмотр" style="ellipse;whiteSpace=wrap;html=1;align=center;" parent="SWJi1FQ2j5csYNJAJ8vP-1" vertex="1">
          <mxGeometry x="42" y="120" width="140" height="70" as="geometry" />
        </mxCell>
        <mxCell id="SWJi1FQ2j5csYNJAJ8vP-11" value="Просмотр списка&lt;br&gt;экскурсий" style="ellipse;whiteSpace=wrap;html=1;align=center;" parent="SWJi1FQ2j5csYNJAJ8vP-1" vertex="1">
          <mxGeometry x="228" y="20" width="140" height="70" as="geometry" />
        </mxCell>
        <mxCell id="SWJi1FQ2j5csYNJAJ8vP-12" value="Просмотр списка&lt;br&gt;водителей" style="ellipse;whiteSpace=wrap;html=1;align=center;" parent="SWJi1FQ2j5csYNJAJ8vP-1" vertex="1">
          <mxGeometry x="258" y="130" width="140" height="70" as="geometry" />
        </mxCell>
        <mxCell id="SWJi1FQ2j5csYNJAJ8vP-13" value="Просмотр списка&lt;br&gt;автобусов" style="ellipse;whiteSpace=wrap;html=1;align=center;" parent="SWJi1FQ2j5csYNJAJ8vP-1" vertex="1">
          <mxGeometry x="-142" y="-30" width="140" height="70" as="geometry" />
        </mxCell>
        <mxCell id="SWJi1FQ2j5csYNJAJ8vP-14" value="Просмотр списка&lt;br&gt;мероприятий" style="ellipse;whiteSpace=wrap;html=1;align=center;" parent="SWJi1FQ2j5csYNJAJ8vP-1" vertex="1">
          <mxGeometry x="41.5" y="-30" width="140" height="70" as="geometry" />
        </mxCell>
        <mxCell id="SWJi1FQ2j5csYNJAJ8vP-15" value="Просмотр списка&lt;br&gt;групп" style="ellipse;whiteSpace=wrap;html=1;align=center;" parent="SWJi1FQ2j5csYNJAJ8vP-1" vertex="1">
          <mxGeometry x="-162" y="80" width="140" height="70" as="geometry" />
        </mxCell>
        <mxCell id="SWJi1FQ2j5csYNJAJ8vP-17" value="&quot;extend&quot;" style="endArrow=open;endSize=12;dashed=1;html=1;exitX=1;exitY=0.5;exitDx=0;exitDy=0;entryX=0;entryY=0.5;entryDx=0;entryDy=0;" parent="SWJi1FQ2j5csYNJAJ8vP-1" source="SWJi1FQ2j5csYNJAJ8vP-15" target="SWJi1FQ2j5csYNJAJ8vP-9" edge="1">
          <mxGeometry width="160" relative="1" as="geometry">
            <mxPoint x="-72" y="230" as="sourcePoint" />
            <mxPoint x="88" y="230" as="targetPoint" />
          </mxGeometry>
        </mxCell>
        <mxCell id="SWJi1FQ2j5csYNJAJ8vP-18" value="" style="endArrow=open;endSize=12;dashed=1;html=1;exitX=1;exitY=1;exitDx=0;exitDy=0;entryX=0;entryY=0;entryDx=0;entryDy=0;" parent="SWJi1FQ2j5csYNJAJ8vP-1" source="SWJi1FQ2j5csYNJAJ8vP-13" target="SWJi1FQ2j5csYNJAJ8vP-9" edge="1">
          <mxGeometry width="160" relative="1" as="geometry">
            <mxPoint x="-72" y="230" as="sourcePoint" />
            <mxPoint x="88" y="230" as="targetPoint" />
          </mxGeometry>
        </mxCell>
        <mxCell id="SWJi1FQ2j5csYNJAJ8vP-19" value="&quot;extend&quot;" style="edgeLabel;html=1;align=center;verticalAlign=middle;resizable=0;points=[];" parent="SWJi1FQ2j5csYNJAJ8vP-18" vertex="1" connectable="0">
          <mxGeometry x="-0.2294" y="-2" relative="1" as="geometry">
            <mxPoint as="offset" />
          </mxGeometry>
        </mxCell>
        <mxCell id="SWJi1FQ2j5csYNJAJ8vP-20" value="" style="endArrow=open;endSize=12;dashed=1;html=1;exitX=0.5;exitY=1;exitDx=0;exitDy=0;entryX=0.5;entryY=0;entryDx=0;entryDy=0;" parent="SWJi1FQ2j5csYNJAJ8vP-1" source="SWJi1FQ2j5csYNJAJ8vP-14" target="SWJi1FQ2j5csYNJAJ8vP-9" edge="1">
          <mxGeometry width="160" relative="1" as="geometry">
            <mxPoint x="-12.502525316941501" y="39.74873734152925" as="sourcePoint" />
            <mxPoint x="72.5025253169415" y="140.25126265847098" as="targetPoint" />
          </mxGeometry>
        </mxCell>
        <mxCell id="SWJi1FQ2j5csYNJAJ8vP-21" value="&quot;extend&quot;" style="edgeLabel;html=1;align=center;verticalAlign=middle;resizable=0;points=[];" parent="SWJi1FQ2j5csYNJAJ8vP-20" vertex="1" connectable="0">
          <mxGeometry x="-0.2294" y="-2" relative="1" as="geometry">
            <mxPoint as="offset" />
          </mxGeometry>
        </mxCell>
        <mxCell id="SWJi1FQ2j5csYNJAJ8vP-24" value="" style="endArrow=open;endSize=12;dashed=1;html=1;exitX=0;exitY=0.5;exitDx=0;exitDy=0;entryX=1;entryY=0.5;entryDx=0;entryDy=0;" parent="SWJi1FQ2j5csYNJAJ8vP-1" source="SWJi1FQ2j5csYNJAJ8vP-11" target="SWJi1FQ2j5csYNJAJ8vP-9" edge="1">
          <mxGeometry width="160" relative="1" as="geometry">
            <mxPoint x="7.497474683058499" y="59.74873734152925" as="sourcePoint" />
            <mxPoint x="92.5025253169415" y="160.25126265847098" as="targetPoint" />
          </mxGeometry>
        </mxCell>
        <mxCell id="SWJi1FQ2j5csYNJAJ8vP-25" value="&quot;extend&quot;" style="edgeLabel;html=1;align=center;verticalAlign=middle;resizable=0;points=[];" parent="SWJi1FQ2j5csYNJAJ8vP-24" vertex="1" connectable="0">
          <mxGeometry x="-0.2294" y="-2" relative="1" as="geometry">
            <mxPoint as="offset" />
          </mxGeometry>
        </mxCell>
        <mxCell id="SWJi1FQ2j5csYNJAJ8vP-26" value="" style="endArrow=open;endSize=12;dashed=1;html=1;exitX=0;exitY=0.5;exitDx=0;exitDy=0;entryX=1;entryY=1;entryDx=0;entryDy=0;" parent="SWJi1FQ2j5csYNJAJ8vP-1" source="SWJi1FQ2j5csYNJAJ8vP-12" target="SWJi1FQ2j5csYNJAJ8vP-9" edge="1">
          <mxGeometry width="160" relative="1" as="geometry">
            <mxPoint x="17.4974746830585" y="69.74873734152925" as="sourcePoint" />
            <mxPoint x="102.5025253169415" y="170.25126265847098" as="targetPoint" />
          </mxGeometry>
        </mxCell>
        <mxCell id="SWJi1FQ2j5csYNJAJ8vP-27" value="&quot;extend&quot;" style="edgeLabel;html=1;align=center;verticalAlign=middle;resizable=0;points=[];" parent="SWJi1FQ2j5csYNJAJ8vP-26" vertex="1" connectable="0">
          <mxGeometry x="-0.2294" y="-2" relative="1" as="geometry">
            <mxPoint as="offset" />
          </mxGeometry>
        </mxCell>
        <mxCell id="SWJi1FQ2j5csYNJAJ8vP-28" value="Добавление" style="ellipse;whiteSpace=wrap;html=1;align=center;" parent="SWJi1FQ2j5csYNJAJ8vP-1" vertex="1">
          <mxGeometry x="479.5" y="265" width="140" height="70" as="geometry" />
        </mxCell>
        <mxCell id="SWJi1FQ2j5csYNJAJ8vP-30" value="Добавление записи в список экскурсий" style="ellipse;whiteSpace=wrap;html=1;align=center;" parent="SWJi1FQ2j5csYNJAJ8vP-1" vertex="1">
          <mxGeometry x="620" y="360" width="140" height="70" as="geometry" />
        </mxCell>
        <mxCell id="SWJi1FQ2j5csYNJAJ8vP-31" value="Добавление записи в список водителей" style="ellipse;whiteSpace=wrap;html=1;align=center;" parent="SWJi1FQ2j5csYNJAJ8vP-1" vertex="1">
          <mxGeometry x="414" y="360" width="140" height="70" as="geometry" />
        </mxCell>
        <mxCell id="SWJi1FQ2j5csYNJAJ8vP-32" value="Добавление записи в список автобусов" style="ellipse;whiteSpace=wrap;html=1;align=center;" parent="SWJi1FQ2j5csYNJAJ8vP-1" vertex="1">
          <mxGeometry x="672" y="125" width="140" height="70" as="geometry" />
        </mxCell>
        <mxCell id="SWJi1FQ2j5csYNJAJ8vP-33" value="Добавление записи в список мероприятий" style="ellipse;whiteSpace=wrap;html=1;align=center;" parent="SWJi1FQ2j5csYNJAJ8vP-1" vertex="1">
          <mxGeometry x="687" y="260" width="140" height="70" as="geometry" />
        </mxCell>
        <mxCell id="SWJi1FQ2j5csYNJAJ8vP-34" value="Добавление записи в список групп" style="ellipse;whiteSpace=wrap;html=1;align=center;" parent="SWJi1FQ2j5csYNJAJ8vP-1" vertex="1">
          <mxGeometry x="492" y="115" width="140" height="70" as="geometry" />
        </mxCell>
        <mxCell id="SWJi1FQ2j5csYNJAJ8vP-46" value="" style="endArrow=open;endSize=12;dashed=1;html=1;exitX=0.5;exitY=1;exitDx=0;exitDy=0;entryX=0.5;entryY=0;entryDx=0;entryDy=0;" parent="SWJi1FQ2j5csYNJAJ8vP-1" source="SWJi1FQ2j5csYNJAJ8vP-34" target="SWJi1FQ2j5csYNJAJ8vP-28" edge="1">
          <mxGeometry width="160" relative="1" as="geometry">
            <mxPoint x="322" y="60" as="sourcePoint" />
            <mxPoint x="265.4974746830583" y="14.74873734152925" as="targetPoint" />
          </mxGeometry>
        </mxCell>
        <mxCell id="SWJi1FQ2j5csYNJAJ8vP-47" value="&quot;extend&quot;" style="edgeLabel;html=1;align=center;verticalAlign=middle;resizable=0;points=[];" parent="SWJi1FQ2j5csYNJAJ8vP-46" vertex="1" connectable="0">
          <mxGeometry x="-0.2294" y="-2" relative="1" as="geometry">
            <mxPoint as="offset" />
          </mxGeometry>
        </mxCell>
        <mxCell id="SWJi1FQ2j5csYNJAJ8vP-48" value="" style="endArrow=open;endSize=12;dashed=1;html=1;exitX=0;exitY=1;exitDx=0;exitDy=0;entryX=1;entryY=0;entryDx=0;entryDy=0;" parent="SWJi1FQ2j5csYNJAJ8vP-1" source="SWJi1FQ2j5csYNJAJ8vP-32" target="SWJi1FQ2j5csYNJAJ8vP-28" edge="1">
          <mxGeometry width="160" relative="1" as="geometry">
            <mxPoint x="572" y="195" as="sourcePoint" />
            <mxPoint x="559.5" y="275" as="targetPoint" />
          </mxGeometry>
        </mxCell>
        <mxCell id="SWJi1FQ2j5csYNJAJ8vP-49" value="&quot;extend&quot;" style="edgeLabel;html=1;align=center;verticalAlign=middle;resizable=0;points=[];" parent="SWJi1FQ2j5csYNJAJ8vP-48" vertex="1" connectable="0">
          <mxGeometry x="-0.2294" y="-2" relative="1" as="geometry">
            <mxPoint as="offset" />
          </mxGeometry>
        </mxCell>
        <mxCell id="SWJi1FQ2j5csYNJAJ8vP-50" value="" style="endArrow=open;endSize=12;dashed=1;html=1;exitX=0;exitY=0.5;exitDx=0;exitDy=0;entryX=1;entryY=0.5;entryDx=0;entryDy=0;" parent="SWJi1FQ2j5csYNJAJ8vP-1" source="SWJi1FQ2j5csYNJAJ8vP-33" target="SWJi1FQ2j5csYNJAJ8vP-28" edge="1">
          <mxGeometry width="160" relative="1" as="geometry">
            <mxPoint x="702.502525316942" y="194.74873734152925" as="sourcePoint" />
            <mxPoint x="608.9974746830585" y="285.2512626584712" as="targetPoint" />
          </mxGeometry>
        </mxCell>
        <mxCell id="SWJi1FQ2j5csYNJAJ8vP-51" value="&quot;extend&quot;" style="edgeLabel;html=1;align=center;verticalAlign=middle;resizable=0;points=[];" parent="SWJi1FQ2j5csYNJAJ8vP-50" vertex="1" connectable="0">
          <mxGeometry x="-0.2294" y="-2" relative="1" as="geometry">
            <mxPoint as="offset" />
          </mxGeometry>
        </mxCell>
        <mxCell id="SWJi1FQ2j5csYNJAJ8vP-54" value="" style="endArrow=open;endSize=12;dashed=1;html=1;exitX=0.5;exitY=0;exitDx=0;exitDy=0;entryX=0.5;entryY=1;entryDx=0;entryDy=0;" parent="SWJi1FQ2j5csYNJAJ8vP-1" source="SWJi1FQ2j5csYNJAJ8vP-30" target="SWJi1FQ2j5csYNJAJ8vP-28" edge="1">
          <mxGeometry width="160" relative="1" as="geometry">
            <mxPoint x="722.502525316942" y="214.74873734152925" as="sourcePoint" />
            <mxPoint x="628.9974746830585" y="305.2512626584712" as="targetPoint" />
          </mxGeometry>
        </mxCell>
        <mxCell id="SWJi1FQ2j5csYNJAJ8vP-55" value="&quot;extend&quot;" style="edgeLabel;html=1;align=center;verticalAlign=middle;resizable=0;points=[];" parent="SWJi1FQ2j5csYNJAJ8vP-54" vertex="1" connectable="0">
          <mxGeometry x="-0.2294" y="-2" relative="1" as="geometry">
            <mxPoint as="offset" />
          </mxGeometry>
        </mxCell>
        <mxCell id="SWJi1FQ2j5csYNJAJ8vP-56" value="" style="endArrow=open;endSize=12;dashed=1;html=1;exitX=0.5;exitY=0;exitDx=0;exitDy=0;entryX=0;entryY=1;entryDx=0;entryDy=0;" parent="SWJi1FQ2j5csYNJAJ8vP-1" source="SWJi1FQ2j5csYNJAJ8vP-31" target="SWJi1FQ2j5csYNJAJ8vP-28" edge="1">
          <mxGeometry width="160" relative="1" as="geometry">
            <mxPoint x="732.502525316942" y="224.74873734152925" as="sourcePoint" />
            <mxPoint x="638.9974746830585" y="315.2512626584712" as="targetPoint" />
          </mxGeometry>
        </mxCell>
        <mxCell id="SWJi1FQ2j5csYNJAJ8vP-57" value="&quot;extend&quot;" style="edgeLabel;html=1;align=center;verticalAlign=middle;resizable=0;points=[];" parent="SWJi1FQ2j5csYNJAJ8vP-56" vertex="1" connectable="0">
          <mxGeometry x="-0.2294" y="-2" relative="1" as="geometry">
            <mxPoint as="offset" />
          </mxGeometry>
        </mxCell>
        <mxCell id="SWJi1FQ2j5csYNJAJ8vP-58" value="Редактирование" style="ellipse;whiteSpace=wrap;html=1;align=center;" parent="SWJi1FQ2j5csYNJAJ8vP-1" vertex="1">
          <mxGeometry x="205.5" y="659" width="140" height="70" as="geometry" />
        </mxCell>
        <mxCell id="SWJi1FQ2j5csYNJAJ8vP-60" value="Редактирование записи в списке&amp;nbsp;экскурсий" style="ellipse;whiteSpace=wrap;html=1;align=center;" parent="SWJi1FQ2j5csYNJAJ8vP-1" vertex="1">
          <mxGeometry x="162" y="809" width="140" height="70" as="geometry" />
        </mxCell>
        <mxCell id="SWJi1FQ2j5csYNJAJ8vP-61" value="Редактирование записи в списке&amp;nbsp;водителей" style="ellipse;whiteSpace=wrap;html=1;align=center;" parent="SWJi1FQ2j5csYNJAJ8vP-1" vertex="1">
          <mxGeometry x="28" y="759" width="140" height="70" as="geometry" />
        </mxCell>
        <mxCell id="SWJi1FQ2j5csYNJAJ8vP-62" value="Редактирование записи в списке&amp;nbsp;автобусов" style="ellipse;whiteSpace=wrap;html=1;align=center;" parent="SWJi1FQ2j5csYNJAJ8vP-1" vertex="1">
          <mxGeometry x="435" y="629" width="140" height="70" as="geometry" />
        </mxCell>
        <mxCell id="SWJi1FQ2j5csYNJAJ8vP-63" value="Редактирование записи в списке мероприятий" style="ellipse;whiteSpace=wrap;html=1;align=center;" parent="SWJi1FQ2j5csYNJAJ8vP-1" vertex="1">
          <mxGeometry x="425" y="709" width="140" height="70" as="geometry" />
        </mxCell>
        <mxCell id="SWJi1FQ2j5csYNJAJ8vP-64" value="Редактирование записи в списке групп" style="ellipse;whiteSpace=wrap;html=1;align=center;" parent="SWJi1FQ2j5csYNJAJ8vP-1" vertex="1">
          <mxGeometry x="368" y="539" width="140" height="70" as="geometry" />
        </mxCell>
        <mxCell id="SWJi1FQ2j5csYNJAJ8vP-65" value="" style="endArrow=open;endSize=12;dashed=1;html=1;exitX=0.5;exitY=1;exitDx=0;exitDy=0;entryX=0.5;entryY=0;entryDx=0;entryDy=0;" parent="SWJi1FQ2j5csYNJAJ8vP-1" source="SWJi1FQ2j5csYNJAJ8vP-64" target="SWJi1FQ2j5csYNJAJ8vP-58" edge="1">
          <mxGeometry width="160" relative="1" as="geometry">
            <mxPoint x="48" y="454" as="sourcePoint" />
            <mxPoint x="-8.502525316941728" y="408.74873734152925" as="targetPoint" />
          </mxGeometry>
        </mxCell>
        <mxCell id="SWJi1FQ2j5csYNJAJ8vP-66" value="&quot;extend&quot;" style="edgeLabel;html=1;align=center;verticalAlign=middle;resizable=0;points=[];" parent="SWJi1FQ2j5csYNJAJ8vP-65" vertex="1" connectable="0">
          <mxGeometry x="-0.2294" y="-2" relative="1" as="geometry">
            <mxPoint as="offset" />
          </mxGeometry>
        </mxCell>
        <mxCell id="SWJi1FQ2j5csYNJAJ8vP-67" value="" style="endArrow=open;endSize=12;dashed=1;html=1;exitX=0;exitY=1;exitDx=0;exitDy=0;entryX=1;entryY=0;entryDx=0;entryDy=0;" parent="SWJi1FQ2j5csYNJAJ8vP-1" source="SWJi1FQ2j5csYNJAJ8vP-62" target="SWJi1FQ2j5csYNJAJ8vP-58" edge="1">
          <mxGeometry width="160" relative="1" as="geometry">
            <mxPoint x="298" y="589" as="sourcePoint" />
            <mxPoint x="285.5" y="669" as="targetPoint" />
          </mxGeometry>
        </mxCell>
        <mxCell id="SWJi1FQ2j5csYNJAJ8vP-68" value="&quot;extend&quot;" style="edgeLabel;html=1;align=center;verticalAlign=middle;resizable=0;points=[];" parent="SWJi1FQ2j5csYNJAJ8vP-67" vertex="1" connectable="0">
          <mxGeometry x="-0.2294" y="-2" relative="1" as="geometry">
            <mxPoint as="offset" />
          </mxGeometry>
        </mxCell>
        <mxCell id="SWJi1FQ2j5csYNJAJ8vP-69" value="" style="endArrow=open;endSize=12;dashed=1;html=1;exitX=0;exitY=0.5;exitDx=0;exitDy=0;entryX=1;entryY=0.5;entryDx=0;entryDy=0;" parent="SWJi1FQ2j5csYNJAJ8vP-1" source="SWJi1FQ2j5csYNJAJ8vP-63" target="SWJi1FQ2j5csYNJAJ8vP-58" edge="1">
          <mxGeometry width="160" relative="1" as="geometry">
            <mxPoint x="428.50252531694196" y="588.7487373415292" as="sourcePoint" />
            <mxPoint x="334.9974746830585" y="679.2512626584712" as="targetPoint" />
          </mxGeometry>
        </mxCell>
        <mxCell id="SWJi1FQ2j5csYNJAJ8vP-70" value="&quot;extend&quot;" style="edgeLabel;html=1;align=center;verticalAlign=middle;resizable=0;points=[];" parent="SWJi1FQ2j5csYNJAJ8vP-69" vertex="1" connectable="0">
          <mxGeometry x="-0.2294" y="-2" relative="1" as="geometry">
            <mxPoint as="offset" />
          </mxGeometry>
        </mxCell>
        <mxCell id="SWJi1FQ2j5csYNJAJ8vP-73" value="" style="endArrow=open;endSize=12;dashed=1;html=1;exitX=0.5;exitY=0;exitDx=0;exitDy=0;entryX=0.5;entryY=1;entryDx=0;entryDy=0;" parent="SWJi1FQ2j5csYNJAJ8vP-1" source="SWJi1FQ2j5csYNJAJ8vP-60" target="SWJi1FQ2j5csYNJAJ8vP-58" edge="1">
          <mxGeometry width="160" relative="1" as="geometry">
            <mxPoint x="448.50252531694196" y="608.7487373415292" as="sourcePoint" />
            <mxPoint x="354.9974746830585" y="699.2512626584712" as="targetPoint" />
          </mxGeometry>
        </mxCell>
        <mxCell id="SWJi1FQ2j5csYNJAJ8vP-74" value="&quot;extend&quot;" style="edgeLabel;html=1;align=center;verticalAlign=middle;resizable=0;points=[];" parent="SWJi1FQ2j5csYNJAJ8vP-73" vertex="1" connectable="0">
          <mxGeometry x="-0.2294" y="-2" relative="1" as="geometry">
            <mxPoint as="offset" />
          </mxGeometry>
        </mxCell>
        <mxCell id="SWJi1FQ2j5csYNJAJ8vP-75" value="" style="endArrow=open;endSize=12;dashed=1;html=1;exitX=0.5;exitY=0;exitDx=0;exitDy=0;entryX=0;entryY=1;entryDx=0;entryDy=0;" parent="SWJi1FQ2j5csYNJAJ8vP-1" source="SWJi1FQ2j5csYNJAJ8vP-61" target="SWJi1FQ2j5csYNJAJ8vP-58" edge="1">
          <mxGeometry width="160" relative="1" as="geometry">
            <mxPoint x="458.50252531694196" y="618.7487373415292" as="sourcePoint" />
            <mxPoint x="364.9974746830585" y="709.2512626584712" as="targetPoint" />
          </mxGeometry>
        </mxCell>
        <mxCell id="SWJi1FQ2j5csYNJAJ8vP-76" value="&quot;extend&quot;" style="edgeLabel;html=1;align=center;verticalAlign=middle;resizable=0;points=[];" parent="SWJi1FQ2j5csYNJAJ8vP-75" vertex="1" connectable="0">
          <mxGeometry x="-0.2294" y="-2" relative="1" as="geometry">
            <mxPoint as="offset" />
          </mxGeometry>
        </mxCell>
        <mxCell id="SWJi1FQ2j5csYNJAJ8vP-77" value="Редактирование" style="ellipse;whiteSpace=wrap;html=1;align=center;" parent="SWJi1FQ2j5csYNJAJ8vP-1" vertex="1">
          <mxGeometry x="-10.5" y="410" width="140" height="70" as="geometry" />
        </mxCell>
        <mxCell id="SWJi1FQ2j5csYNJAJ8vP-79" value="Удаление&amp;nbsp;записи в списке&amp;nbsp;экскурсий" style="ellipse;whiteSpace=wrap;html=1;align=center;" parent="SWJi1FQ2j5csYNJAJ8vP-1" vertex="1">
          <mxGeometry x="-16" y="610" width="140" height="70" as="geometry" />
        </mxCell>
        <mxCell id="SWJi1FQ2j5csYNJAJ8vP-80" value="Удаление записи в списке&amp;nbsp;водителей" style="ellipse;whiteSpace=wrap;html=1;align=center;" parent="SWJi1FQ2j5csYNJAJ8vP-1" vertex="1">
          <mxGeometry x="-110" y="530" width="140" height="70" as="geometry" />
        </mxCell>
        <mxCell id="SWJi1FQ2j5csYNJAJ8vP-81" value="Удаление&amp;nbsp;записи в списке&amp;nbsp;автобусов" style="ellipse;whiteSpace=wrap;html=1;align=center;" parent="SWJi1FQ2j5csYNJAJ8vP-1" vertex="1">
          <mxGeometry x="-230" y="470" width="140" height="70" as="geometry" />
        </mxCell>
        <mxCell id="SWJi1FQ2j5csYNJAJ8vP-82" value="Удаление&amp;nbsp;записи в списке мероприятий" style="ellipse;whiteSpace=wrap;html=1;align=center;" parent="SWJi1FQ2j5csYNJAJ8vP-1" vertex="1">
          <mxGeometry x="190" y="420" width="140" height="70" as="geometry" />
        </mxCell>
        <mxCell id="SWJi1FQ2j5csYNJAJ8vP-83" value="Удаление записи в списке групп" style="ellipse;whiteSpace=wrap;html=1;align=center;" parent="SWJi1FQ2j5csYNJAJ8vP-1" vertex="1">
          <mxGeometry x="-220" y="390" width="140" height="70" as="geometry" />
        </mxCell>
        <mxCell id="SWJi1FQ2j5csYNJAJ8vP-96" value="" style="endArrow=open;endSize=12;dashed=1;html=1;exitX=1;exitY=0.5;exitDx=0;exitDy=0;entryX=0;entryY=0;entryDx=0;entryDy=0;" parent="SWJi1FQ2j5csYNJAJ8vP-1" source="SWJi1FQ2j5csYNJAJ8vP-83" target="SWJi1FQ2j5csYNJAJ8vP-77" edge="1">
          <mxGeometry width="160" relative="1" as="geometry">
            <mxPoint x="567" y="630" as="sourcePoint" />
            <mxPoint x="497.5" y="710" as="targetPoint" />
          </mxGeometry>
        </mxCell>
        <mxCell id="SWJi1FQ2j5csYNJAJ8vP-97" value="&quot;extend&quot;" style="edgeLabel;html=1;align=center;verticalAlign=middle;resizable=0;points=[];" parent="SWJi1FQ2j5csYNJAJ8vP-96" vertex="1" connectable="0">
          <mxGeometry x="-0.2294" y="-2" relative="1" as="geometry">
            <mxPoint as="offset" />
          </mxGeometry>
        </mxCell>
        <mxCell id="SWJi1FQ2j5csYNJAJ8vP-100" value="" style="endArrow=open;endSize=12;dashed=1;html=1;exitX=1;exitY=0.5;exitDx=0;exitDy=0;entryX=0;entryY=0.5;entryDx=0;entryDy=0;" parent="SWJi1FQ2j5csYNJAJ8vP-1" source="SWJi1FQ2j5csYNJAJ8vP-81" target="SWJi1FQ2j5csYNJAJ8vP-77" edge="1">
          <mxGeometry width="160" relative="1" as="geometry">
            <mxPoint x="-160" y="655" as="sourcePoint" />
            <mxPoint x="-54.9974746830585" y="730.2512626584708" as="targetPoint" />
          </mxGeometry>
        </mxCell>
        <mxCell id="SWJi1FQ2j5csYNJAJ8vP-101" value="&quot;extend&quot;" style="edgeLabel;html=1;align=center;verticalAlign=middle;resizable=0;points=[];" parent="SWJi1FQ2j5csYNJAJ8vP-100" vertex="1" connectable="0">
          <mxGeometry x="-0.2294" y="-2" relative="1" as="geometry">
            <mxPoint as="offset" />
          </mxGeometry>
        </mxCell>
        <mxCell id="SWJi1FQ2j5csYNJAJ8vP-102" value="" style="endArrow=open;endSize=12;dashed=1;html=1;exitX=0.5;exitY=0;exitDx=0;exitDy=0;entryX=0;entryY=1;entryDx=0;entryDy=0;" parent="SWJi1FQ2j5csYNJAJ8vP-1" source="SWJi1FQ2j5csYNJAJ8vP-80" target="SWJi1FQ2j5csYNJAJ8vP-77" edge="1">
          <mxGeometry width="160" relative="1" as="geometry">
            <mxPoint x="-150" y="665" as="sourcePoint" />
            <mxPoint x="-44.9974746830585" y="740.2512626584708" as="targetPoint" />
          </mxGeometry>
        </mxCell>
        <mxCell id="SWJi1FQ2j5csYNJAJ8vP-103" value="&quot;extend&quot;" style="edgeLabel;html=1;align=center;verticalAlign=middle;resizable=0;points=[];" parent="SWJi1FQ2j5csYNJAJ8vP-102" vertex="1" connectable="0">
          <mxGeometry x="-0.2294" y="-2" relative="1" as="geometry">
            <mxPoint as="offset" />
          </mxGeometry>
        </mxCell>
        <mxCell id="SWJi1FQ2j5csYNJAJ8vP-104" value="" style="endArrow=open;endSize=12;dashed=1;html=1;exitX=0.5;exitY=0;exitDx=0;exitDy=0;entryX=0.5;entryY=1;entryDx=0;entryDy=0;" parent="SWJi1FQ2j5csYNJAJ8vP-1" source="SWJi1FQ2j5csYNJAJ8vP-79" target="SWJi1FQ2j5csYNJAJ8vP-77" edge="1">
          <mxGeometry width="160" relative="1" as="geometry">
            <mxPoint x="-140" y="675" as="sourcePoint" />
            <mxPoint x="-34.9974746830585" y="750.2512626584708" as="targetPoint" />
          </mxGeometry>
        </mxCell>
        <mxCell id="SWJi1FQ2j5csYNJAJ8vP-105" value="&quot;extend&quot;" style="edgeLabel;html=1;align=center;verticalAlign=middle;resizable=0;points=[];" parent="SWJi1FQ2j5csYNJAJ8vP-104" vertex="1" connectable="0">
          <mxGeometry x="-0.2294" y="-2" relative="1" as="geometry">
            <mxPoint as="offset" />
          </mxGeometry>
        </mxCell>
        <mxCell id="SWJi1FQ2j5csYNJAJ8vP-108" value="" style="endArrow=open;endSize=12;dashed=1;html=1;exitX=0;exitY=0.5;exitDx=0;exitDy=0;entryX=1;entryY=0.5;entryDx=0;entryDy=0;" parent="SWJi1FQ2j5csYNJAJ8vP-1" source="SWJi1FQ2j5csYNJAJ8vP-82" target="SWJi1FQ2j5csYNJAJ8vP-77" edge="1">
          <mxGeometry width="160" relative="1" as="geometry">
            <mxPoint x="-120" y="695" as="sourcePoint" />
            <mxPoint x="-14.997474683058499" y="770.2512626584708" as="targetPoint" />
          </mxGeometry>
        </mxCell>
        <mxCell id="SWJi1FQ2j5csYNJAJ8vP-109" value="&quot;extend&quot;" style="edgeLabel;html=1;align=center;verticalAlign=middle;resizable=0;points=[];" parent="SWJi1FQ2j5csYNJAJ8vP-108" vertex="1" connectable="0">
          <mxGeometry x="-0.2294" y="-2" relative="1" as="geometry">
            <mxPoint as="offset" />
          </mxGeometry>
        </mxCell>
        <mxCell id="SWJi1FQ2j5csYNJAJ8vP-112" value="" style="html=1;verticalAlign=bottom;endArrow=block;entryX=0;entryY=1;entryDx=0;entryDy=0;exitX=0.5;exitY=0;exitDx=0;exitDy=0;exitPerimeter=0;" parent="SWJi1FQ2j5csYNJAJ8vP-1" source="SWJi1FQ2j5csYNJAJ8vP-3" target="SWJi1FQ2j5csYNJAJ8vP-9" edge="1">
          <mxGeometry width="80" relative="1" as="geometry">
            <mxPoint x="350" y="280" as="sourcePoint" />
            <mxPoint x="553.5025253169329" y="219.7487373415338" as="targetPoint" />
          </mxGeometry>
        </mxCell>
        <mxCell id="SWJi1FQ2j5csYNJAJ8vP-113" value="" style="html=1;verticalAlign=bottom;endArrow=block;entryX=0;entryY=0.5;entryDx=0;entryDy=0;exitX=0.5;exitY=0.5;exitDx=0;exitDy=0;exitPerimeter=0;" parent="SWJi1FQ2j5csYNJAJ8vP-1" source="SWJi1FQ2j5csYNJAJ8vP-3" target="SWJi1FQ2j5csYNJAJ8vP-28" edge="1">
          <mxGeometry width="80" relative="1" as="geometry">
            <mxPoint x="360" y="290" as="sourcePoint" />
            <mxPoint x="454.50252531693286" y="199.7487373415338" as="targetPoint" />
          </mxGeometry>
        </mxCell>
        <mxCell id="SWJi1FQ2j5csYNJAJ8vP-114" value="" style="html=1;verticalAlign=bottom;endArrow=block;entryX=0;entryY=0;entryDx=0;entryDy=0;exitX=1;exitY=1;exitDx=0;exitDy=0;exitPerimeter=0;" parent="SWJi1FQ2j5csYNJAJ8vP-1" source="SWJi1FQ2j5csYNJAJ8vP-3" target="SWJi1FQ2j5csYNJAJ8vP-58" edge="1">
          <mxGeometry width="80" relative="1" as="geometry">
            <mxPoint x="360" y="320" as="sourcePoint" />
            <mxPoint x="464.50252531693286" y="209.7487373415338" as="targetPoint" />
          </mxGeometry>
        </mxCell>
        <mxCell id="SWJi1FQ2j5csYNJAJ8vP-115" value="" style="html=1;verticalAlign=bottom;endArrow=block;entryX=0.5;entryY=0;entryDx=0;entryDy=0;" parent="SWJi1FQ2j5csYNJAJ8vP-1" source="SWJi1FQ2j5csYNJAJ8vP-3" target="SWJi1FQ2j5csYNJAJ8vP-77" edge="1">
          <mxGeometry width="80" relative="1" as="geometry">
            <mxPoint x="300" y="330" as="sourcePoint" />
            <mxPoint x="474.50252531693286" y="219.7487373415338" as="targetPoint" />
          </mxGeometry>
        </mxCell>
      </root>
    </mxGraphModel>
  </diagram>
</mxfile>
